<svg xmlns="http://www.w3.org/2000/svg">
<defs>
<g id="add"><path d="M19 13h-6v6h-2v-6H5v-2h6V5h2v6h6v2z"></path></g>
<g id="add-alert"><path d="M10.01 21.01c0 1.1.89 1.99 1.99 1.99s1.99-.89 1.99-1.99h-3.98zm8.87-4.19V11c0-3.25-2.25-5.97-5.29-6.69v-.72C13.59 2.71 12.88 2 12 2s-1.59.71-1.59 1.59v.72C7.37 5.03 5.12 7.75 5.12 11v5.82L3 18.94V20h18v-1.06l-2.12-2.12zM16 13.01h-3v3h-2v-3H8V11h3V8h2v3h3v2.01z"></path></g>
<g id="add-a-photo"><path d="M3 4V1h2v3h3v2H5v3H3V6H0V4h3zm3 6V7h3V4h7l1.83 2H21c1.1 0 2 .9 2 2v12c0 1.1-.9 2-2 2H5c-1.1 0-2-.9-2-2V10h3zm7 9c2.76 0 5-2.24 5-5s-2.24-5-5-5-5 2.24-5 5 2.24 5 5 5zm-3.2-5c0 1.77 1.43 3.2 3.2 3.2s3.2-1.43 3.2-3.2-1.43-3.2-3.2-3.2-3.2 1.43-3.2 3.2z"></path></g>
<g id="arrow-back"><path d="M20 11H7.83l5.59-5.59L12 4l-8 8 8 8 1.41-1.41L7.83 13H20v-2z"></path></g>
<g id="arrow-forward"><path d="M12 4l-1.41 1.41L16.17 11H4v2h12.17l-5.58 5.59L12 20l8-8z"></path></g>
<g id="assignment"><path d="M19 3h-4.18C14.4 1.84 13.3 1 12 1c-1.3 0-2.4.84-2.82 2H5c-1.1 0-2 .9-2 2v14c0 1.1.9 2 2 2h14c1.1 0 2-.9 2-2V5c0-1.1-.9-2-2-2zm-7 0c.55 0 1 .45 1 1s-.45 1-1 1-1-.45-1-1 .45-1 1-1zm2 14H7v-2h7v2zm3-4H7v-2h10v2zm0-4H7V7h10v2z"></path></g>
<g id="assignment-add"><path class="st0" d="M18.9,3h-4.1c-0.2-0.6-0.6-1.1-1.1-1.4C13.2,1.2,12.7,1,12.1,1c-0.6,0-1.2,0.2-1.7,0.5C9.9,1.9,9.5,2.4,9.3,3H5.2C4.9,3,4.7,3.1,4.4,3.2C4.2,3.3,4,3.4,3.8,3.6C3.6,3.8,3.5,4,3.4,4.2C3.3,4.5,3.2,4.7,3.2,5v13.9c0,0.5,0.2,1,0.6,1.4c0.4,0.4,0.9,0.6,1.4,0.6h13.7c0.5,0,1-0.2,1.4-0.6c0.4-0.4,0.6-0.9,0.6-1.4V5c0-0.3,0-0.5-0.1-0.8c-0.1-0.2-0.2-0.5-0.4-0.6c-0.2-0.2-0.4-0.3-0.6-0.4C19.4,3.1,19.2,3,18.9,3z M12.1,2.6c0.1,0,0.3,0,0.4,0c0.1,0,0.3,0.1,0.4,0.2s0.2,0.2,0.2,0.3c0.1,0.1,0.1,0.3,0.1,0.4c0,0.1,0,0.3-0.1,0.4c-0.1,0.1-0.1,0.2-0.2,0.3c-0.1,0.1-0.2,0.2-0.4,0.2c-0.1,0-0.3,0.1-0.4,0c-0.2,0-0.5-0.1-0.6-0.3c-0.2-0.2-0.3-0.4-0.3-0.7s0.1-0.5,0.3-0.7C11.6,2.8,11.8,2.7,12.1,2.6z M17.5,14.4h-4.1v4.1h-2.7v-4.1H6.6v-2.7h4.1V7.5h2.7v4.1h4.1L17.5,14.4z"/></g>
<g id="backup"><path d="M19.35 10.04C18.67 6.59 15.64 4 12 4 9.11 4 6.6 5.64 5.35 8.04 2.34 8.36 0 10.91 0 14c0 3.31 2.69 6 6 6h13c2.76 0 5-2.24 5-5 0-2.64-2.05-4.78-4.65-4.96zM14 13v4h-4v-4H7l5-5 5 5h-3z"></path></g>
<g id="build"><path d="M22.7 19l-9.1-9.1c.9-2.3.4-5-1.5-6.9-2-2-5-2.4-7.4-1.3L9 6 6 9 1.6 4.7C.4 7.1.9 10.1 2.9 12.1c1.9 1.9 4.6 2.4 6.9 1.5l9.1 9.1c.4.4 1 .4 1.4 0l2.3-2.3c.5-.4.5-1.1.1-1.4z"></path></g>
<g id="calendar"><path d="M17 12h-5v5h5v-5zM16 1v2H8V1H6v2H5c-1.11 0-1.99.9-1.99 2L3 19c0 1.1.89 2 2 2h14c1.1 0 2-.9 2-2V5c0-1.1-.9-2-2-2h-1V1h-2zm3 18H5V8h14v11z"></path></g>
<g id="camper"><path class="st0" d="M20.5,6.3v8.2h2.1v2.2H12c0,1.8-1.4,3.3-3.2,3.3c-1.7,0-3.2-1.5-3.2-3.3H3.6c-1.2,0-2.1-1-2.1-2.2c0,0,0,0.8,0-3.3V6.3c0-1.1,1.1-2.2,2.1-2.2h14.8C19.5,4.1,20.5,5.1,20.5,6.3z M12,9.1V7.2c0-0.5-0.4-1-1-1H4.5c-0.5,0-1,0.4-1,1V9c0,0.5,0.4,1,1,1H11C11.6,10.1,12,9.6,12,9.1z M18.4,9.1V7.2c0-0.5-0.4-1-1-1h-2.3c-0.5,0-1,0.4-1,1V9c0,0.5,0.4,1,1,1h2.3C17.9,10.1,18.4,9.6,18.4,9.1z M8.9,16.1c-0.6,0-1.1,0.5-1.1,1.1c0,0.6,0.5,1.1,1.1,1.1s1.1-0.5,1.1-1.1C9.9,16.6,9.4,16.1,8.9,16.1z"/></g>
<g id="card-giftcard"><path d="M20 6h-2.18c.11-.31.18-.65.18-1 0-1.66-1.34-3-3-3-1.05 0-1.96.54-2.5 1.35l-.5.67-.5-.68C10.96 2.54 10.05 2 9 2 7.34 2 6 3.34 6 5c0 .35.07.69.18 1H4c-1.11 0-1.99.89-1.99 2L2 19c0 1.11.89 2 2 2h16c1.11 0 2-.89 2-2V8c0-1.11-.89-2-2-2zm-5-2c.55 0 1 .45 1 1s-.45 1-1 1-1-.45-1-1 .45-1 1-1zM9 4c.55 0 1 .45 1 1s-.45 1-1 1-1-.45-1-1 .45-1 1-1zm11 15H4v-2h16v2zm0-5H4V8h5.08L7 10.83 8.62 12 11 8.76l1-1.36 1 1.36L15.38 12 17 10.83 14.92 8H20v6z"></path></g>
<g id="cell-bars"><path d="M6.6 14.7H3V21H6.6V14.7Z"></path><path d="M11.4 10.8H7.80005V21H11.4V10.8Z"></path><path d="M16.1999 6.1001H12.5999V21.0001H16.1999V6.1001Z"></path><path d="M21.0001 3H17.4001V21H21.0001V3Z"></path></g>
<g id="cell-bars-0"><path d="M6.6 14.7H3V21H6.6V14.7Z" fill="#B3B0AA"/><path d="M11.4 10.8H7.80005V21H11.4V10.8Z" fill="#B3B0AA"/><path d="M16.1999 6.1001H12.5999V21.0001H16.1999V6.1001Z" fill="#B3B0AA"/><path d="M21.0001 3H17.4001V21H21.0001V3Z" fill="#B3B0AA"/></g>
<g id="cell-bars-1"><path d="M6.6 14.7H3V21H6.6V14.7Z" fill="#757168"/><path d="M11.4 10.8H7.80005V21H11.4V10.8Z" fill="#B3B0AA"/><path d="M16.1999 6.1001H12.5999V21.0001H16.1999V6.1001Z" fill="#B3B0AA"/><path d="M21.0001 3H17.4001V21H21.0001V3Z" fill="#B3B0AA"/></g>
<g id="cell-bars-2"><path d="M6.6 14.7H3V21H6.6V14.7Z" fill="#757168"/><path d="M11.4 10.8H7.80005V21H11.4V10.8Z" fill="#757168"/><path d="M16.1999 6.1001H12.5999V21.0001H16.1999V6.1001Z" fill="#B3B0AA"/><path d="M21.0001 3H17.4001V21H21.0001V3Z" fill="#B3B0AA"/></g>
<g id="cell-bars-3"><path d="M6.6 14.7H3V21H6.6V14.7Z" fill="#757168"/><path d="M11.4 10.8H7.80005V21H11.4V10.8Z" fill="#757168"/><path d="M16.1999 6.1001H12.5999V21.0001H16.1999V6.1001Z" fill="#757168"/><path d="M21.0001 3H17.4001V21H21.0001V3Z" fill="#B3B0AA"/></g>
<g id="cell-bars-4"><path d="M6.6 14.7H3V21H6.6V14.7Z" fill="#757168"/><path d="M11.4 10.8H7.80005V21H11.4V10.8Z" fill="#757168"/><path d="M16.1999 6.1001H12.5999V21.0001H16.1999V6.1001Z" fill="#757168"/><path d="M21.0001 3H17.4001V21H21.0001V3Z" fill="#757168"/></g>
<g id="clear"><path d="M19 6.41L17.59 5 12 10.59 6.41 5 5 6.41 10.59 12 5 17.59 6.41 19 12 13.41 17.59 19 19 17.59 13.41 12z"></path></g>
<g id="cloud"><path d="M19.35 10.04C18.67 6.59 15.64 4 12 4 9.11 4 6.6 5.64 5.35 8.04 2.34 8.36 0 10.91 0 14c0 3.31 2.69 6 6 6h13c2.76 0 5-2.24 5-5 0-2.64-2.05-4.78-4.65-4.96z"></path></g>
<g id="copy"><path d="M16 1H4c-1.1 0-2 .9-2 2v14h2V3h12V1zm3 4H8c-1.1 0-2 .9-2 2v14c0 1.1.9 2 2 2h11c1.1 0 2-.9 2-2V7c0-1.1-.9-2-2-2zm0 16H8V7h11v14z"></path></g>
<g id="edit"><path d="M3 17.25V21h3.75L17.81 9.94l-3.75-3.75L3 17.25zM20.71 7.04c.39-.39.39-1.02 0-1.41l-2.34-2.34c-.39-.39-1.02-.39-1.41 0l-1.83 1.83 3.75 3.75 1.83-1.83z"></path></g>
<g id="delete"><path d="M6 19c0 1.1.9 2 2 2h8c1.1 0 2-.9 2-2V7H6v12zM19 4h-3.5l-1-1h-5l-1 1H5v2h14V4z"></path></g>
<g id="directions"><path d="M21.71 11.29l-9-9c-.39-.39-1.02-.39-1.41 0l-9 9c-.39.39-.39 1.02 0 1.41l9 9c.39.39 1.02.39 1.41 0l9-9c.39-.38.39-1.01 0-1.41zM14 14.5V12h-4v3H8v-4c0-.55.45-1 1-1h5V7.5l3.5 3.5-3.5 3.5z"></path></g>
<g id="facebook"><path class="st0" d="M13.7,11.8c0,2.5,0,4.9,0,7.3c0,1,0,2,0,3c0,0.4-0.1,0.6-0.6,0.6c-1.2,0-2.4,0-3.6,0c-0.5,0-0.6-0.1-0.6-0.6c0-3.2,0-6.4,0-9.7c0-0.6,0-0.6-0.6-0.6c-0.4,0-0.8,0-1.2,0c-0.2,0-0.4-0.1-0.4-0.4c0-1,0-2,0-3C6.8,8.1,6.9,8,7.2,8s0.8,0,1.2,0C9,8,9,8,9,7.4c0-1,0-1.9,0.1-2.7c0.2-2.1,1.8-3.6,3.9-3.6c1.2,0,2.4,0,3.5-0.1c0.4,0,0.6,0.1,0.6,0.6c0,1,0,1.8,0,2.7c0,0.4-0.1,0.5-0.5,0.5c-0.6,0-1.3,0-1.9,0s-1,0.5-1,1.1s0,1.2,0,1.7c0,0.4,0.1,0.5,0.5,0.5c0.7,0,1.6,0,2.3,0c0.6,0,0.7,0,0.6,0.6c-0.1,1-0.2,1.9-0.2,2.9c0,0.4-0.2,0.5-0.5,0.5C15.5,11.8,14.6,11.8,13.7,11.8z"/></g>
<g id="folder"><path d="M10 4H4c-1.1 0-1.99.9-1.99 2L2 18c0 1.1.9 2 2 2h16c1.1 0 2-.9 2-2V8c0-1.1-.9-2-2-2h-8l-2-2z"></path></g>
<g id="google"><path class="st0" d="M17.4,13.9c-0.3,1.1-0.9,2-1.8,2.7c-0.9,0.7-1.9,1.1-3,1.2c-1.3,0.1-2.6-0.1-3.7-0.8s-2-1.6-2.5-2.9s-0.7-2.5-0.3-3.7c0.3-1.2,1-2.4,2-3.2c2.2-1.8,4.8-1.9,7.8-0.1l2.9-2.9c-0.1,0-0.1-0.1-0.2-0.2c-1.9-1.5-4.2-2.4-6.7-2.3c-1.3,0-2.6,0.3-3.8,1S5.7,4.2,4.9,5.2c-1.8,2-2.6,4.6-2.5,7.2c0.1,2.6,1.3,5.2,3.4,6.9c2.1,1.8,4.6,2.6,7.2,2.5c1.9-0.1,3.6-0.7,5.2-1.8c1.3-1.1,2.4-2.6,3-4.3c0.5-1.6,0.8-3.5,0.4-5.2c0-0.3-0.2-0.4-0.5-0.4h-8.5H12v3.8h5.4V13.9z"/></g>
<g id="help"><path d="M12 2C6.48 2 2 6.48 2 12s4.48 10 10 10 10-4.48 10-10S17.52 2 12 2zm1 17h-2v-2h2v2zm2.07-7.75l-.9.92C13.45 12.9 13 13.5 13 15h-2v-.5c0-1.1.45-2.1 1.17-2.83l1.24-1.26c.37-.36.59-.86.59-1.41 0-1.1-.9-2-2-2s-2 .9-2 2H8c0-2.21 1.79-4 4-4s4 1.79 4 4c0 .88-.36 1.68-.93 2.25z"></path></g>
<g id="home"><path d="M10 20v-6h4v6h5v-8h3L12 3 2 12h3v8z"></path></g>
<g id="info"><path d="M12 2C6.48 2 2 6.48 2 12s4.48 10 10 10 10-4.48 10-10S17.52 2 12 2zm1 15h-2v-6h2v6zm0-8h-2V7h2v2z"></path></g>
<g id="infobare"><rect x="10.9" y="10.4" width="3.2" height="9.6"/><rect x="10.9" y="4" width="3.2" height="3.2"/></g>
<g id="loader"><path d="M12 6v3l4-4-4-4v3c-4.42 0-8 3.58-8 8 0 1.57.46 3.03 1.24 4.26L6.7 14.8c-.45-.83-.7-1.79-.7-2.8 0-3.31 2.69-6 6-6zm6.76 1.74L17.3 9.2c.44.84.7 1.79.7 2.8 0 3.31-2.69 6-6 6v-3l-4 4 4 4v-3c4.42 0 8-3.58 8-8 0-1.57-.46-3.03-1.24-4.26z"></path></g>
<g id="lock"><path d="M18 8h-1V6c0-2.76-2.24-5-5-5S7 3.24 7 6v2H6c-1.1 0-2 .9-2 2v10c0 1.1.9 2 2 2h12c1.1 0 2-.9 2-2V10c0-1.1-.9-2-2-2zm-6 9c-1.1 0-2-.9-2-2s.9-2 2-2 2 .9 2 2-.9 2-2 2zm3.1-9H8.9V6c0-1.71 1.39-3.1 3.1-3.1 1.71 0 3.1 1.39 3.1 3.1v2z"></path></g>
<g id="mail"><path d="M20 4H4c-1.1 0-1.99.9-1.99 2L2 18c0 1.1.9 2 2 2h16c1.1 0 2-.9 2-2V6c0-1.1-.9-2-2-2zm0 4l-8 5-8-5V6l8 5 8-5v2z"></path></g>
<g id="menu"><path d="M3 18h18v-2H3v2zm0-5h18v-2H3v2zm0-7v2h18V6H3z"></path></g>
<g id="more-vert"><path d="M12 8c1.1 0 2-.9 2-2s-.9-2-2-2-2 .9-2 2 .9 2 2 2zm0 2c-1.1 0-2 .9-2 2s.9 2 2 2 2-.9 2-2-.9-2-2-2zm0 6c-1.1 0-2 .9-2 2s.9 2 2 2 2-.9 2-2-.9-2-2-2z"></path></g>
<g id="notifications-active"><path d="M7.58 4.08L6.15 2.65C3.75 4.48 2.17 7.3 2.03 10.5h2c.15-2.65 1.51-4.97 3.55-6.42zm12.39 6.42h2c-.15-3.2-1.73-6.02-4.12-7.85l-1.42 1.43c2.02 1.45 3.39 3.77 3.54 6.42zM18 11c0-3.07-1.64-5.64-4.5-6.32V4c0-.83-.67-1.5-1.5-1.5s-1.5.67-1.5 1.5v.68C7.63 5.36 6 7.92 6 11v5l-2 2v1h16v-1l-2-2v-5zm-6 11c.14 0 .27-.01.4-.04.65-.14 1.18-.58 1.44-1.18.1-.24.15-.5.15-.78h-4c.01 1.1.9 2 2.01 2z"></path></g>
<g id="note-add"><path d="M14 2H6c-1.1 0-1.99.9-1.99 2L4 20c0 1.1.89 2 1.99 2H18c1.1 0 2-.9 2-2V8l-6-6zm2 14h-3v3h-2v-3H8v-2h3v-3h2v3h3v2zm-3-7V3.5L18.5 9H13z"></path></g>
<g id="open-in-browser"><path d="M19 4H5c-1.11 0-2 .9-2 2v12c0 1.1.89 2 2 2h4v-2H5V8h14v10h-4v2h4c1.1 0 2-.9 2-2V6c0-1.1-.89-2-2-2zm-7 6l-4 4h3v6h2v-6h3l-4-4z"></path></g>
<g id="person"><path d="M12 12c2.21 0 4-1.79 4-4s-1.79-4-4-4-4 1.79-4 4 1.79 4 4 4zm0 2c-2.67 0-8 1.34-8 4v2h16v-2c0-2.66-5.33-4-8-4z"></path></g>
<g id="person-add"><path d="M15 12c2.21 0 4-1.79 4-4s-1.79-4-4-4-4 1.79-4 4 1.79 4 4 4zm-9-2V7H4v3H1v2h3v3h2v-3h3v-2H6zm9 4c-2.67 0-8 1.34-8 4v2h16v-2c0-2.66-5.33-4-8-4z"></path></g>
<g id="pool"><path d="M22 21c-1.11 0-1.73-.37-2.18-.64-.37-.22-.6-.36-1.15-.36-.56 0-.78.13-1.15.36-.46.27-1.07.64-2.18.64s-1.73-.37-2.18-.64c-.37-.22-.6-.36-1.15-.36-.56 0-.78.13-1.15.36-.46.27-1.08.64-2.19.64-1.11 0-1.73-.37-2.18-.64-.37-.23-.6-.36-1.15-.36s-.78.13-1.15.36c-.46.27-1.08.64-2.19.64v-2c.56 0 .78-.13 1.15-.36.46-.27 1.08-.64 2.19-.64s1.73.37 2.18.64c.37.23.59.36 1.15.36.56 0 .78-.13 1.15-.36.46-.27 1.08-.64 2.19-.64 1.11 0 1.73.37 2.18.64.37.22.6.36 1.15.36s.78-.13 1.15-.36c.45-.27 1.07-.64 2.18-.64s1.73.37 2.18.64c.37.23.59.36 1.15.36v2zm0-4.5c-1.11 0-1.73-.37-2.18-.64-.37-.22-.6-.36-1.15-.36-.56 0-.78.13-1.15.36-.45.27-1.07.64-2.18.64s-1.73-.37-2.18-.64c-.37-.22-.6-.36-1.15-.36-.56 0-.78.13-1.15.36-.45.27-1.07.64-2.18.64s-1.73-.37-2.18-.64c-.37-.22-.6-.36-1.15-.36s-.78.13-1.15.36c-.47.27-1.09.64-2.2.64v-2c.56 0 .78-.13 1.15-.36.45-.27 1.07-.64 2.18-.64s1.73.37 2.18.64c.37.22.6.36 1.15.36.56 0 .78-.13 1.15-.36.45-.27 1.07-.64 2.18-.64s1.73.37 2.18.64c.37.22.6.36 1.15.36s.78-.13 1.15-.36c.45-.27 1.07-.64 2.18-.64s1.73.37 2.18.64c.37.22.6.36 1.15.36v2zM8.67 12c.56 0 .78-.13 1.15-.36.46-.27 1.08-.64 2.19-.64 1.11 0 1.73.37 2.18.64.37.22.6.36 1.15.36s.78-.13 1.15-.36c.12-.07.26-.15.41-.23L10.48 5C8.93 3.45 7.5 2.99 5 3v2.5c1.82-.01 2.89.39 4 1.5l1 1-3.25 3.25c.31.12.56.27.77.39.37.23.59.36 1.15.36z"></path><circle cx="16.5" cy="5.5" r="2.5"></circle></g>
<g id="phone"><path d="M6.62 10.79c1.44 2.83 3.76 5.14 6.59 6.59l2.2-2.2c.27-.27.67-.36 1.02-.24 1.12.37 2.33.57 3.57.57.55 0 1 .45 1 1V20c0 .55-.45 1-1 1-9.39 0-17-7.61-17-17 0-.55.45-1 1-1h3.5c.55 0 1 .45 1 1 0 1.25.2 2.45.57 3.57.11.35.03.74-.25 1.02l-2.2 2.2z"></path></g>
<g id="pin-drop"><path d="M18 8c0-3.31-2.69-6-6-6S6 4.69 6 8c0 4.5 6 11 6 11s6-6.5 6-11zm-8 0c0-1.1.9-2 2-2s2 .9 2 2-.89 2-2 2c-1.1 0-2-.9-2-2zM5 20v2h14v-2H5z"></path></g>
<g id="print"><path d="M19 8H5c-1.66 0-3 1.34-3 3v6h4v4h12v-4h4v-6c0-1.66-1.34-3-3-3zm-3 11H8v-5h8v5zm3-7c-.55 0-1-.45-1-1s.45-1 1-1 1 .45 1 1-.45 1-1 1zm-1-9H6v4h12V3z"></path></g>
<g id="radio-button-checked"><path d="M12 7c-2.76 0-5 2.24-5 5s2.24 5 5 5 5-2.24 5-5-2.24-5-5-5zm0-5C6.48 2 2 6.48 2 12s4.48 10 10 10 10-4.48 10-10S17.52 2 12 2zm0 18c-4.42 0-8-3.58-8-8s3.58-8 8-8 8 3.58 8 8-3.58 8-8 8z"></path></g>
<g id="radio-button-unchecked"><path d="M12 2C6.48 2 2 6.48 2 12s4.48 10 10 10 10-4.48 10-10S17.52 2 12 2zm0 18c-4.42 0-8-3.58-8-8s3.58-8 8-8 8 3.58 8 8-3.58 8-8 8z"></path></g>
<g id="search"><path d="M15.5 14h-.79l-.28-.27C15.41 12.59 16 11.11 16 9.5 16 5.91 13.09 3 9.5 3S3 5.91 3 9.5 5.91 16 9.5 16c1.61 0 3.09-.59 4.23-1.57l.27.28v.79l5 4.99L20.49 19l-4.99-5zm-6 0C7.01 14 5 11.99 5 9.5S7.01 5 9.5 5 14 7.01 14 9.5 11.99 14 9.5 14z"></path></g>
<g id="share"><path d="M18 16.08c-.76 0-1.44.3-1.96.77L8.91 12.7c.05-.23.09-.46.09-.7s-.04-.47-.09-.7l7.05-4.11c.54.5 1.25.81 2.04.81 1.66 0 3-1.34 3-3s-1.34-3-3-3-3 1.34-3 3c0 .24.04.47.09.7L8.04 9.81C7.5 9.31 6.79 9 6 9c-1.66 0-3 1.34-3 3s1.34 3 3 3c.79 0 1.5-.31 2.04-.81l7.12 4.16c-.05.21-.08.43-.08.65 0 1.61 1.31 2.92 2.92 2.92 1.61 0 2.92-1.31 2.92-2.92s-1.31-2.92-2.92-2.92z"></path></g>
<g id="shopping-cart"><path d="M7 18c-1.1 0-1.99.9-1.99 2S5.9 22 7 22s2-.9 2-2-.9-2-2-2zM1 2v2h2l3.6 7.59-1.35 2.45c-.16.28-.25.61-.25.96 0 1.1.9 2 2 2h12v-2H7.42c-.14 0-.25-.11-.25-.25l.03-.12.9-1.63h7.45c.75 0 1.41-.41 1.75-1.03l3.58-6.49c.08-.14.12-.31.12-.48 0-.55-.45-1-1-1H5.21l-.94-2H1zm16 16c-1.1 0-1.99.9-1.99 2s.89 2 1.99 2 2-.9 2-2-.9-2-2-2z"></path></g>
<g id="speaker-phone"><path d="M7 7.07L8.43 8.5c.91-.91 2.18-1.48 3.57-1.48s2.66.57 3.57 1.48L17 7.07C15.72 5.79 13.95 5 12 5s-3.72.79-5 2.07zM12 1C8.98 1 6.24 2.23 4.25 4.21l1.41 1.41C7.28 4 9.53 3 12 3s4.72 1 6.34 2.62l1.41-1.41C17.76 2.23 15.02 1 12 1zm2.86 9.01L9.14 10C8.51 10 8 10.51 8 11.14v9.71c0 .63.51 1.14 1.14 1.14h5.71c.63 0 1.14-.51 1.14-1.14v-9.71c.01-.63-.5-1.13-1.13-1.13zM15 20H9v-8h6v8z"></path></g>
<g id="star"><path d="M12 17.27L18.18 21l-1.64-7.03L22 9.24l-7.19-.61L12 2 9.19 8.63 2 9.24l5.46 4.73L5.82 21z"></path></g>
<g id="star-border"><path d="M22 9.24l-7.19-.62L12 2 9.19 8.63 2 9.24l5.46 4.73L5.82 21 12 17.27 18.18 21l-1.63-7.03L22 9.24zM12 15.4l-3.76 2.27 1-4.28-3.32-2.88 4.38-.38L12 6.1l1.71 4.04 4.38.38-3.32 2.88 1 4.28L12 15.4z"></path></g>
<g id="star-half"><path d="M22 9.24l-7.19-.62L12 2 9.19 8.63 2 9.24l5.46 4.73L5.82 21 12 17.27 18.18 21l-1.63-7.03L22 9.24zM12 15.4V6.1l1.71 4.04 4.38.38-3.32 2.88 1 4.28L12 15.4z"></path></g>
<g id="store"><path d="M20 4H4v2h16V4zm1 10v-2l-1-5H4l-1 5v2h1v6h10v-6h4v6h2v-6h1zm-9 4H6v-4h6v4z"></path></g>
<g id="swap-horiz"><path d="M6.99 11L3 15l3.99 4v-3H14v-2H6.99v-3zM21 9l-3.99-4v3H10v2h7.01v3L21 9z"></path></g>
<g id="terrain"><path d="M14 6l-3.75 5 2.85 3.8-1.6 1.2C9.81 13.75 7 10 7 10l-6 8h22L14 6z"></path></g>
<g id="timeline"><path d="M23 8c0 1.1-.9 2-2 2-.18 0-.35-.02-.51-.07l-3.56 3.55c.05.16.07.34.07.52 0 1.1-.9 2-2 2s-2-.9-2-2c0-.18.02-.36.07-.52l-2.55-2.55c-.16.05-.34.07-.52.07s-.36-.02-.52-.07l-4.55 4.56c.05.16.07.33.07.51 0 1.1-.9 2-2 2s-2-.9-2-2 .9-2 2-2c.18 0 .35.02.51.07l4.56-4.55C8.02 9.36 8 9.18 8 9c0-1.1.9-2 2-2s2 .9 2 2c0 .18-.02.36-.07.52l2.55 2.55c.16-.05.34-.07.52-.07s.36.02.52.07l3.55-3.56C19.02 8.35 19 8.18 19 8c0-1.1.9-2 2-2s2 .9 2 2z"></path></g>
<g id="thumb-up"><path d="M1 21h4V9H1v12zm22-11c0-1.1-.9-2-2-2h-6.31l.95-4.57.03-.32c0-.41-.17-.79-.44-1.06L14.17 1 7.59 7.59C7.22 7.95 7 8.45 7 9v10c0 1.1.9 2 2 2h9c.83 0 1.54-.5 1.84-1.22l3.02-7.05c.09-.23.14-.47.14-.73v-1.91l-.01-.01L23 10z"></path></g>
<g id="tune"><path d="M3 17v2h6v-2H3zM3 5v2h10V5H3zm10 16v-2h8v-2h-8v-2h-2v6h2zM7 9v2H3v2h4v2h2V9H7zm14 4v-2H11v2h10zm-6-4h2V7h4V5h-4V3h-2v6z"></path></g>
<g id="verified-user"><path d="M12 1L3 5v6c0 5.55 3.84 10.74 9 12 5.16-1.26 9-6.45 9-12V5l-9-4zm-2 16l-4-4 1.41-1.41L10 14.17l6.59-6.59L18 9l-8 8z"></path></g>
<g id="youtube"><path d="M1952.37,1798.87C2285.32,1772.23 2678.38,1758.91 2978.08,1758.91C3277.63,1758.91 3663.97,1772.23 4003.64,1798.87C4396.53,1832.17 4596.33,1898.76 4649.72,2291.7C4676.25,2471.52 4689.68,2717.94 4689.68,2971.02C4689.68,3224.1 4676.25,3477.18 4649.72,3650.33C4596.33,4049.93 4396.53,4109.87 4003.64,4143.16C3663.97,4176.47 3277.63,4183.12 2978.08,4183.12C2678.38,4183.12 2285.32,4176.47 1952.37,4143.16C1559.48,4109.87 1352.96,4049.93 1299.73,3650.33C1279.75,3477.18 1266.49,3224.1 1266.49,2971.02C1266.49,2717.94 1279.75,2471.52 1299.73,2291.7C1352.96,1898.76 1559.48,1832.17 1952.37,1798.87ZM2631.7,2458.21L3524.11,2971.02L2631.7,3490.49L2631.7,2458.21Z"></path></g>
<g id="tiktok"><path d="M4029.91,1989.68C3842.41,1874.34 3698.2,1658.08 3662.26,1441.82C3654.92,1391.35 3647.73,1348.1 3647.73,1297.63L3078.21,1297.63L3078.21,3568.42C3078.21,3835.15 2861.97,4051.41 2595.26,4051.41C2508.86,4051.41 2436.67,4029.79 2364.64,3993.74C2213.24,3914.44 2105.11,3748.64 2105.11,3568.42C2105.11,3301.69 2321.36,3085.42 2595.26,3085.42C2645.72,3085.42 2689,3092.64 2739.47,3107.06L2739.47,2530.35C2689,2523.13 2645.72,2515.93 2595.26,2515.93C2011.37,2515.93 1535.6,2984.5 1535.6,3568.42C1535.6,3921.65 1715.75,4238.84 1989.8,4426.28C2162.77,4541.62 2371.82,4613.69 2595.26,4613.69C3179.15,4613.69 3647.73,4145.12 3647.73,3568.42L3647.73,2386.17C3863.97,2580.8 4152.4,2674.52 4440.68,2652.9L4440.68,2083.39C4296.62,2112.24 4152.4,2068.99 4029.91,1989.68Z"/></g>

<g id="attach-file"><path d="M16.5 6v11.5c0 2.21-1.79 4-4 4s-4-1.79-4-4V5c0-1.38 1.12-2.5 2.5-2.5s2.5 1.12 2.5 2.5v10.5c0 .55-.45 1-1 1s-1-.45-1-1V6H10v9.5c0 1.38 1.12 2.5 2.5 2.5s2.5-1.12 2.5-2.5V5c0-2.21-1.79-4-4-4S7 2.79 7 5v12.5c0 3.04 2.46 5.5 5.5 5.5s5.5-2.46 5.5-5.5V6h-1.5z"></path></g>
<g id="attach-money"><path d="M11.8 10.9c-2.27-.59-3-1.2-3-2.15 0-1.09 1.01-1.85 2.7-1.85 1.78 0 2.44.85 2.5 2.1h2.21c-.07-1.72-1.12-3.3-3.21-3.81V3h-3v2.16c-1.94.42-3.5 1.68-3.5 3.61 0 2.31 1.91 3.46 4.7 4.13 2.5.6 3 1.48 3 2.41 0 .69-.49 1.79-2.7 1.79-2.06 0-2.87-.92-2.98-2.1h-2.2c.12 2.19 1.76 3.42 3.68 3.83V21h3v-2.15c1.95-.37 3.5-1.5 3.5-3.55 0-2.84-2.43-3.81-4.7-4.4z"></path></g>
<g id="bubble-chart"><circle cx="7.2" cy="14.4" r="3.2"></circle><circle cx="14.8" cy="18" r="2"></circle><circle cx="15.2" cy="8.8" r="4.8"></circle></g>
<g id="drag-handle"><path d="M20 9H4v2h16V9zM4 15h16v-2H4v2z"></path></g>
<g id="format-align-center"><path d="M7 15v2h10v-2H7zm-4 6h18v-2H3v2zm0-8h18v-2H3v2zm4-6v2h10V7H7zM3 3v2h18V3H3z"></path></g>
<g id="format-align-justify"><path d="M3 21h18v-2H3v2zm0-4h18v-2H3v2zm0-4h18v-2H3v2zm0-4h18V7H3v2zm0-6v2h18V3H3z"></path></g>
<g id="format-align-left"><path d="M15 15H3v2h12v-2zm0-8H3v2h12V7zM3 13h18v-2H3v2zm0 8h18v-2H3v2zM3 3v2h18V3H3z"></path></g>
<g id="format-align-right"><path d="M3 21h18v-2H3v2zm6-4h12v-2H9v2zm-6-4h18v-2H3v2zm6-4h12V7H9v2zM3 3v2h18V3H3z"></path></g>
<g id="format-bold"><path d="M15.6 10.79c.97-.67 1.65-1.77 1.65-2.79 0-2.26-1.75-4-4-4H7v14h7.04c2.09 0 3.71-1.7 3.71-3.79 0-1.52-.86-2.82-2.15-3.42zM10 6.5h3c.83 0 1.5.67 1.5 1.5s-.67 1.5-1.5 1.5h-3v-3zm3.5 9H10v-3h3.5c.83 0 1.5.67 1.5 1.5s-.67 1.5-1.5 1.5z"></path></g>
<g id="format-clear"><path d="M3.27 5L2 6.27l6.97 6.97L6.5 19h3l1.57-3.66L16.73 21 18 19.73 3.55 5.27 3.27 5zM6 5v.18L8.82 8h2.4l-.72 1.68 2.1 2.1L14.21 8H20V5H6z"></path></g>
<g id="format-color-fill"><path d="M16.56 8.94L7.62 0 6.21 1.41l2.38 2.38-5.15 5.15c-.59.59-.59 1.54 0 2.12l5.5 5.5c.29.29.68.44 1.06.44s.77-.15 1.06-.44l5.5-5.5c.59-.58.59-1.53 0-2.12zM5.21 10L10 5.21 14.79 10H5.21zM19 11.5s-2 2.17-2 3.5c0 1.1.9 2 2 2s2-.9 2-2c0-1.33-2-3.5-2-3.5z"></path><path fill-opacity=".36" d="M0 20h24v4H0z"></path></g>
<g id="format-color-reset"><path d="M18 14c0-4-6-10.8-6-10.8s-1.33 1.51-2.73 3.52l8.59 8.59c.09-.42.14-.86.14-1.31zm-.88 3.12L12.5 12.5 5.27 5.27 4 6.55l3.32 3.32C6.55 11.32 6 12.79 6 14c0 3.31 2.69 6 6 6 1.52 0 2.9-.57 3.96-1.5l2.63 2.63 1.27-1.27-2.74-2.74z"></path></g>
<g id="format-color-text"><path fill-opacity=".36" d="M0 20h24v4H0z"></path><path d="M11 3L5.5 17h2.25l1.12-3h6.25l1.12 3h2.25L13 3h-2zm-1.38 9L12 5.67 14.38 12H9.62z"></path></g>
<g id="format-indent-decrease"><path d="M11 17h10v-2H11v2zm-8-5l4 4V8l-4 4zm0 9h18v-2H3v2zM3 3v2h18V3H3zm8 6h10V7H11v2zm0 4h10v-2H11v2z"></path></g>
<g id="format-indent-increase"><path d="M3 21h18v-2H3v2zM3 8v8l4-4-4-4zm8 9h10v-2H11v2zM3 3v2h18V3H3zm8 6h10V7H11v2zm0 4h10v-2H11v2z"></path></g>
<g id="format-italic"><path d="M10 4v3h2.21l-3.42 8H6v3h8v-3h-2.21l3.42-8H18V4z"></path></g>
<g id="format-line-spacing"><path d="M6 7h2.5L5 3.5 1.5 7H4v10H1.5L5 20.5 8.5 17H6V7zm4-2v2h12V5H10zm0 14h12v-2H10v2zm0-6h12v-2H10v2z"></path></g>
<g id="format-list-bulleted"><path d="M4 10.5c-.83 0-1.5.67-1.5 1.5s.67 1.5 1.5 1.5 1.5-.67 1.5-1.5-.67-1.5-1.5-1.5zm0-6c-.83 0-1.5.67-1.5 1.5S3.17 7.5 4 7.5 5.5 6.83 5.5 6 4.83 4.5 4 4.5zm0 12c-.83 0-1.5.68-1.5 1.5s.68 1.5 1.5 1.5 1.5-.68 1.5-1.5-.67-1.5-1.5-1.5zM7 19h14v-2H7v2zm0-6h14v-2H7v2zm0-8v2h14V5H7z"></path></g>
<g id="format-list-numbered"><path d="M2 17h2v.5H3v1h1v.5H2v1h3v-4H2v1zm1-9h1V4H2v1h1v3zm-1 3h1.8L2 13.1v.9h3v-1H3.2L5 10.9V10H2v1zm5-6v2h14V5H7zm0 14h14v-2H7v2zm0-6h14v-2H7v2z"></path></g>
<g id="format-paint"><path d="M18 4V3c0-.55-.45-1-1-1H5c-.55 0-1 .45-1 1v4c0 .55.45 1 1 1h12c.55 0 1-.45 1-1V6h1v4H9v11c0 .55.45 1 1 1h2c.55 0 1-.45 1-1v-9h8V4h-3z"></path></g>
<g id="format-quote"><path d="M6 17h3l2-4V7H5v6h3zm8 0h3l2-4V7h-6v6h3z"></path></g>
<g id="format-shapes"><path d="M23 7V1h-6v2H7V1H1v6h2v10H1v6h6v-2h10v2h6v-6h-2V7h2zM3 3h2v2H3V3zm2 18H3v-2h2v2zm12-2H7v-2H5V7h2V5h10v2h2v10h-2v2zm4 2h-2v-2h2v2zM19 5V3h2v2h-2zm-5.27 9h-3.49l-.73 2H7.89l3.4-9h1.4l3.41 9h-1.63l-.74-2zm-3.04-1.26h2.61L12 8.91l-1.31 3.83z"></path></g>
<g id="format-size"><path d="M9 4v3h5v12h3V7h5V4H9zm-6 8h3v7h3v-7h3V9H3v3z"></path></g>
<g id="format-strikethrough"><path d="M10 19h4v-3h-4v3zM5 4v3h5v3h4V7h5V4H5zM3 14h18v-2H3v2z"></path></g>
<g id="format-underlined"><path d="M12 17c3.31 0 6-2.69 6-6V3h-2.5v8c0 1.93-1.57 3.5-3.5 3.5S8.5 12.93 8.5 11V3H6v8c0 3.31 2.69 6 6 6zm-7 2v2h14v-2H5z"></path></g>
<g id="functions"><path d="M18 4H6v2l6.5 6L6 18v2h12v-3h-7l5-5-5-5h7z"></path></g>
<g id="highlight"><path d="M6 14l3 3v5h6v-5l3-3V9H6zm5-12h2v3h-2zM3.5 5.875L4.914 4.46l2.12 2.122L5.62 7.997zm13.46.71l2.123-2.12 1.414 1.414L18.375 8z"></path></g>
<g id="insert-chart"><path d="M19 3H5c-1.1 0-2 .9-2 2v14c0 1.1.9 2 2 2h14c1.1 0 2-.9 2-2V5c0-1.1-.9-2-2-2zM9 17H7v-7h2v7zm4 0h-2V7h2v10zm4 0h-2v-4h2v4z"></path></g>
<g id="insert-comment"><path d="M20 2H4c-1.1 0-2 .9-2 2v12c0 1.1.9 2 2 2h14l4 4V4c0-1.1-.9-2-2-2zm-2 12H6v-2h12v2zm0-3H6V9h12v2zm0-3H6V6h12v2z"></path></g>
<g id="insert-drive-file"><path d="M6 2c-1.1 0-1.99.9-1.99 2L4 20c0 1.1.89 2 1.99 2H18c1.1 0 2-.9 2-2V8l-6-6H6zm7 7V3.5L18.5 9H13z"></path></g>
<g id="insert-emoticon"><path d="M11.99 2C6.47 2 2 6.48 2 12s4.47 10 9.99 10C17.52 22 22 17.52 22 12S17.52 2 11.99 2zM12 20c-4.42 0-8-3.58-8-8s3.58-8 8-8 8 3.58 8 8-3.58 8-8 8zm3.5-9c.83 0 1.5-.67 1.5-1.5S16.33 8 15.5 8 14 8.67 14 9.5s.67 1.5 1.5 1.5zm-7 0c.83 0 1.5-.67 1.5-1.5S9.33 8 8.5 8 7 8.67 7 9.5 7.67 11 8.5 11zm3.5 6.5c2.33 0 4.31-1.46 5.11-3.5H6.89c.8 2.04 2.78 3.5 5.11 3.5z"></path></g>
<g id="insert-invitation"><path d="M17 12h-5v5h5v-5zM16 1v2H8V1H6v2H5c-1.11 0-1.99.9-1.99 2L3 19c0 1.1.89 2 2 2h14c1.1 0 2-.9 2-2V5c0-1.1-.9-2-2-2h-1V1h-2zm3 18H5V8h14v11z"></path></g>
<g id="insert-link"><path d="M3.9 12c0-1.71 1.39-3.1 3.1-3.1h4V7H7c-2.76 0-5 2.24-5 5s2.24 5 5 5h4v-1.9H7c-1.71 0-3.1-1.39-3.1-3.1zM8 13h8v-2H8v2zm9-6h-4v1.9h4c1.71 0 3.1 1.39 3.1 3.1s-1.39 3.1-3.1 3.1h-4V17h4c2.76 0 5-2.24 5-5s-2.24-5-5-5z"></path></g>
<g id="insert-photo"><path d="M21 19V5c0-1.1-.9-2-2-2H5c-1.1 0-2 .9-2 2v14c0 1.1.9 2 2 2h14c1.1 0 2-.9 2-2zM8.5 13.5l2.5 3.01L14.5 12l4.5 6H5l3.5-4.5z"></path></g>
<g id="linear-scale"><path d="M19.5 9.5c-1.03 0-1.9.62-2.29 1.5h-2.92c-.39-.88-1.26-1.5-2.29-1.5s-1.9.62-2.29 1.5H6.79c-.39-.88-1.26-1.5-2.29-1.5C3.12 9.5 2 10.62 2 12s1.12 2.5 2.5 2.5c1.03 0 1.9-.62 2.29-1.5h2.92c.39.88 1.26 1.5 2.29 1.5s1.9-.62 2.29-1.5h2.92c.39.88 1.26 1.5 2.29 1.5 1.38 0 2.5-1.12 2.5-2.5s-1.12-2.5-2.5-2.5z"></path></g>
<g id="merge-type"><path d="M17 20.41L18.41 19 15 15.59 13.59 17 17 20.41zM7.5 8H11v5.59L5.59 19 7 20.41l6-6V8h3.5L12 3.5 7.5 8z"></path></g>
<g id="mode-comment"><path d="M21.99 4c0-1.1-.89-2-1.99-2H4c-1.1 0-2 .9-2 2v12c0 1.1.9 2 2 2h14l4 4-.01-18z"></path></g>
<g id="mode-edit"><path d="M3 17.25V21h3.75L17.81 9.94l-3.75-3.75L3 17.25zM20.71 7.04c.39-.39.39-1.02 0-1.41l-2.34-2.34c-.39-.39-1.02-.39-1.41 0l-1.83 1.83 3.75 3.75 1.83-1.83z"></path></g>
<g id="multiline-chart"><path d="M22 6.92l-1.41-1.41-2.85 3.21C15.68 6.4 12.83 5 9.61 5 6.72 5 4.07 6.16 2 8l1.42 1.42C5.12 7.93 7.27 7 9.61 7c2.74 0 5.09 1.26 6.77 3.24l-2.88 3.24-4-4L2 16.99l1.5 1.5 6-6.01 4 4 4.05-4.55c.75 1.35 1.25 2.9 1.44 4.55H21c-.22-2.3-.95-4.39-2.04-6.14L22 6.92z"></path></g>
<g id="pie-chart"><path d="M11 2v20c-5.07-.5-9-4.79-9-10s3.93-9.5 9-10zm2.03 0v8.99H22c-.47-4.74-4.24-8.52-8.97-8.99zm0 11.01V22c4.74-.47 8.5-4.25 8.97-8.99h-8.97z"></path></g>
<g id="pie-chart-outlined"><path d="M12 2C6.5 2 2 6.5 2 12s4.5 10 10 10 10-4.5 10-10S17.5 2 12 2zm1 2.07c3.61.45 6.48 3.33 6.93 6.93H13V4.07zM4 12c0-4.06 3.07-7.44 7-7.93v15.87c-3.93-.5-7-3.88-7-7.94zm9 7.93V13h6.93c-.45 3.61-3.32 6.48-6.93 6.93z"></path></g>
<g id="publish"><path d="M5 4v2h14V4H5zm0 10h4v6h6v-6h4l-7-7-7 7z"></path></g>
<g id="short-text"><path d="M4 9h16v2H4zm0 4h10v2H4z"></path></g>
<g id="show-chart"><path d="M3.5 18.49l6-6.01 4 4L22 6.92l-1.41-1.41-7.09 7.97-4-4L2 16.99z"></path></g>
<g id="space-bar"><path d="M18 9v4H6V9H4v6h16V9z"></path></g>
<g id="text-fields"><path d="M2.5 4v3h5v12h3V7h5V4h-13zm19 5h-9v3h3v7h3v-7h3V9z"></path></g>
<g id="title"><path d="M5 4v3h5.5v12h3V7H19V4z"></path></g>
<g id="vertical-align-bottom"><path d="M16 13h-3V3h-2v10H8l4 4 4-4zM4 19v2h16v-2H4z"></path></g>
<g id="vertical-align-center"><path d="M8 19h3v4h2v-4h3l-4-4-4 4zm8-14h-3V1h-2v4H8l4 4 4-4zM4 11v2h16v-2H4z"></path></g>
<g id="vertical-align-top"><path d="M8 11h3v10h2V11h3l-4-4-4 4zM4 3v2h16V3H4z"></path></g>
<g id="wrap-text"><path d="M4 19h6v-2H4v2zM20 5H4v2h16V5zm-3 6H4v2h13.25c1.1 0 2 .9 2 2s-.9 2-2 2H15v-2l-3 3 3 3v-2h2c2.21 0 4-1.79 4-4s-1.79-4-4-4z"></path></g>


<g id="amenity-agequalified"><path d="M12 17.27L18.18 21l-1.64-7.03L22 9.24l-7.19-.61L12 2 9.19 8.63 2 9.24l5.46 4.73L5.82 21z"></path></g>
<g id="amenity-arcade"><path d="M21 6H3c-1.1 0-2 .9-2 2v8c0 1.1.9 2 2 2h18c1.1 0 2-.9 2-2V8c0-1.1-.9-2-2-2zm-10 7H8v3H6v-3H3v-2h3V8h2v3h3v2zm4.5 2c-.83 0-1.5-.67-1.5-1.5s.67-1.5 1.5-1.5 1.5.67 1.5 1.5-.67 1.5-1.5 1.5zm4-3c-.83 0-1.5-.67-1.5-1.5S18.67 9 19.5 9s1.5.67 1.5 1.5-.67 1.5-1.5 1.5z"></path></g>
<g id="amenity-atv"><path d="M15.5,15.6H9.2c0-0.3-0.1-0.6-0.1-0.8C8.8,13,7.6,11.6,5.9,11c-1.1-0.4-2.3-0.8-3.4-1.1L2.3,9.9c0.3-0.4,0.5-0.7,0.7-1c0.3-0.3,0.8-0.5,1.2-0.3l6.3,2L12,11c0.5,0.2,1,0,1.3-0.4L14.9,8C15,8,15.1,8,15.1,8c0,0,0,0,0,0l6.4,2c0.4,0.1,0.6,0.4,0.7,0.7c0,0,0,0.1,0,0.1h-2.1c-2.1,0-4,1.5-4.5,3.6C15.6,14.8,15.6,15.2,15.5,15.6z"/><path d="M4.8,19.6c-1.9,0-3.5-1.6-3.5-3.5s1.6-3.5,3.5-3.5c0,0,0,0,0,0c1.9,0,3.5,1.6,3.5,3.5C8.3,18,6.7,19.6,4.8,19.6z M4.8,17.3c0.7,0.1,1.4-0.5,1.4-1.2c0.1-0.7-0.5-1.4-1.2-1.4c-0.1,0-0.2,0-0.2,0c-0.7,0.1-1.3,0.7-1.2,1.4C3.6,16.8,4.1,17.3,4.8,17.3z"/><path d="M16.3,16.4c0-1.8,1.4-3.2,3.2-3.2c1.8,0,3.2,1.4,3.2,3.2s-1.4,3.2-3.2,3.2c0,0,0,0,0,0C17.8,19.6,16.3,18.1,16.3,16.4z M19.6,17.6c0.7,0.1,1.2-0.4,1.3-1.1c0.1-0.7-0.4-1.2-1.1-1.3c-0.1,0-0.1,0-0.2,0c-0.7,0.1-1.1,0.6-1.1,1.3C18.5,17.1,19,17.5,19.6,17.6z"/><path d="M16.2,7.5c-0.4-0.1-0.7-0.2-1.1-0.3c-0.1,0-0.2-0.1-0.2-0.2c-0.2-0.4-0.4-0.8-0.6-1.3c-0.1-0.3-0.4-0.4-0.7-0.4H11c-0.3,0-0.5-0.2-0.5-0.4c0,0,0,0,0,0c0-0.3,0.2-0.5,0.4-0.5c0,0,0,0,0.1,0h2.7c0.6,0,1.1,0.3,1.4,0.9c0.4,0.7,0.7,1.4,1.1,2.2C16.2,7.4,16.2,7.5,16.2,7.5z"/><path d="M18.3,5.5v2.7C17.8,8.2,17.3,8,17,7.6c-0.3-0.4-0.4-1-0.1-1.5C17.2,5.7,17.7,5.4,18.3,5.5z"/></g>
<g id="amenity-basketball"><path d="M22.4,12.7c-0.1,0.4-0.1,0.8-0.2,1.2c-0.1,0.7-0.3,1.5-0.6,2.2c-2.4-5.5-6.5-8.7-12.4-9.5c0.2-0.3,0.4-0.7,0.7-1C10,5.2,10.2,5,10.4,4.7c0.1-0.1,0.2-0.1,0.3-0.1c0.6,0.1,1.3,0.2,1.9,0.3c1,0.1,2,0.1,3.1-0.3c1.2-0.4,2.3-0.4,3.5,0.2c0.4,0.2,0.7,0.5,1,0.7c0.5,0.5,0.9,1.1,1.2,1.7c0.6,1.2,1,2.5,1.1,3.9c0,0.1,0,0.1,0,0.2C22.4,11.8,22.4,12.2,22.4,12.7z"/>	<path d="M12.5,1.6c-0.1,0.1-0.2,0.2-0.2,0.2c-0.7,0.5-1.3,1.1-1.9,1.7c-0.1,0.1-0.2,0.2-0.4,0.1c-0.5-0.2-0.9-0.4-1.1-1c0,0,0-0.1,0-0.1C8.8,2.2,8.8,2.1,9.1,2c0.7-0.2,1.3-0.3,2-0.4c0.1,0,0.1,0,0.2,0C11.7,1.6,12.1,1.6,12.5,1.6z"/>	<path d="M7.5,11.5c0.1-0.5,0.2-0.9,0.3-1.4C8,9.3,8.3,8.4,8.7,7.6c0.1-0.1,0.1-0.2,0.3-0.2c2.4,0.3,4.6,1,6.6,2.4c2.1,1.4,3.7,3.3,4.8,5.6c0.3,0.6,0.5,1.2,0.7,1.7c0,0.1,0,0.2,0,0.2c-0.7,1.2-1.7,2.3-2.8,3.1c-0.2,0.2-0.5,0.3-0.7,0.5c-0.2,0.2-0.4,0.2-0.7,0.1c-1.4-0.2-2.2-1-2.8-2.3c-0.3-0.7-0.4-1.5-0.7-2.3C13,15.2,12.4,14,11.4,13c-0.8-0.8-1.9-1.3-3-1.4C8.1,11.6,7.9,11.5,7.5,11.5z"/>	<path d="M7.5,12.4c0.5,0,1,0,1.5,0.2c1.3,0.3,2.2,1.2,2.9,2.3c0.5,0.9,0.7,1.9,1,2.9c0.2,0.7,0.4,1.3,0.7,1.9c0.5,1,1.3,1.7,2.4,2.1c-0.2,0.1-0.3,0.1-0.4,0.2c-1.4,0.5-2.9,0.7-4.3,0.5c-0.1,0-0.2-0.1-0.2-0.1c-1.2-1.3-2.1-2.8-2.6-4.5c-0.4-1.2-0.7-2.5-0.7-3.7c0-0.5,0-0.9,0-1.4C7.4,12.6,7.5,12.5,7.5,12.4z"/>	<path d="M6.6,12.4c-0.1,1.8,0.1,3.5,0.6,5.2c0.5,1.7,1.3,3.2,2.4,4.6c-0.2,0-0.3-0.1-0.5-0.1c-2.4-0.7-4.3-2-5.7-4c-0.2-0.2-0.2-0.6-0.3-0.8c-0.1-0.7-0.1-1.4,0-2.1c0.3-1.1,0.9-1.8,2-2.2C5.6,12.7,6.1,12.6,6.6,12.4z"/>	<path d="M6.6,11.6c-0.3,0.1-0.6,0.1-0.8,0.2C4.8,12,4,12.4,3.3,13.1c-0.6,0.7-0.9,1.5-1,2.4c0,0.1,0,0.1,0,0.2c0,0,0,0-0.1,0c-0.1-0.4-0.3-0.8-0.4-1.2c-0.4-1.7-0.4-3.3,0-5C1.9,9.4,2,9.3,2,9.3c1.2-0.9,2.6-1.5,4.1-1.8c0.6-0.1,1.1-0.1,1.7-0.2C7.5,8,7.3,8.7,7.1,9.4C6.9,10.1,6.8,10.9,6.6,11.6z"/>	<path d="M8,2.4c0.1,1,0.7,1.6,1.6,2C9.4,4.6,9.3,4.8,9.1,5C8.9,5.4,8.6,5.9,8.3,6.3C8.3,6.4,8.2,6.5,8,6.5C7,6.5,6,6.6,5,6.9C4.2,7.1,3.5,7.4,2.8,7.7C2.7,7.8,2.6,7.9,2.4,8C2.7,6.2,6.1,2.8,8,2.4z"/>	<path d="M18.2,3.6c-0.6-0.1-1.2-0.1-1.8,0c-0.4,0.1-0.8,0.1-1.2,0.3c-0.6,0.2-1.2,0.3-1.8,0.2C12.7,4.1,12,4,11.3,3.9c0,0-0.1,0-0.1,0c0-0.1,0.1-0.1,0.1-0.1c0.7-0.7,1.5-1.4,2.4-1.9c0.1,0,0.2-0.1,0.3,0c1.5,0.3,2.8,0.9,4,1.7C18.1,3.5,18.1,3.6,18.2,3.6z"/></g>
<g id="amenity-beachaccess"><path d="M13.127 14.56l1.43-1.43 6.44 6.443L19.57 21zm4.293-5.73l2.86-2.86c-3.95-3.95-10.35-3.96-14.3-.02 3.93-1.3 8.31-.25 11.44 2.88zM5.95 5.98c-3.94 3.95-3.93 10.35.02 14.3l2.86-2.86C5.7 14.29 4.65 9.91 5.95 5.98zm.02-.02l-.01.01c-.38 3.01 1.17 6.88 4.3 10.02l5.73-5.73c-3.13-3.13-7.01-4.68-10.02-4.3z"></path></g>
<g id="amenity-bigrigs"><path d="M4 16c0 .88.39 1.67 1 2.22V20c0 .55.45 1 1 1h1c.55 0 1-.45 1-1v-1h8v1c0 .55.45 1 1 1h1c.55 0 1-.45 1-1v-1.78c.61-.55 1-1.34 1-2.22V6c0-3.5-3.58-4-8-4s-8 .5-8 4v10zm3.5 1c-.83 0-1.5-.67-1.5-1.5S6.67 14 7.5 14s1.5.67 1.5 1.5S8.33 17 7.5 17zm9 0c-.83 0-1.5-.67-1.5-1.5s.67-1.5 1.5-1.5 1.5.67 1.5 1.5-.67 1.5-1.5 1.5zm1.5-6H6V6h12v5z"></path></g>
<g id="amenity-billiards"><path d="M6.1,21.8c-2.6,0-4.7-2.1-4.7-4.7c0-0.8,0.2-1.6,0.6-2.3L7.9,4.6c1.3-2.2,4.2-3,6.4-1.7c0.7,0.4,1.3,1,1.7,1.7l5.9,10.2c1.3,2.3,0.5,5.1-1.8,6.4c-0.7,0.4-1.5,0.6-2.3,0.6L6.1,21.8z M9.4,5.4L3.6,15.6c-0.8,1.5-0.2,3.3,1.2,4.1C5.2,19.9,5.7,20,6.1,20h11.7c1.7,0,3-1.4,2.9-3.1c0-0.5-0.1-0.9-0.4-1.3L14.5,5.4c-0.9-1.4-2.7-1.8-4.1-1C10,4.7,9.7,5,9.4,5.4z"/>	<circle cx="11.9" cy="6.3" r="1.9"/>	<circle cx="9.7" cy="9.9" r="1.9"/>	<circle cx="7.5" cy="13.6" r="1.9"/>	<circle cx="5.6" cy="17.3" r="1.9"/>	<circle cx="14.2" cy="9.9" r="1.9"/>	<circle cx="11.9" cy="13.7" r="1.9"/>	<circle cx="9.7" cy="17.3" r="1.9"/>	<circle cx="14.2" cy="17.3" r="1.9"/>	<circle cx="16.3" cy="13.6" r="1.9"/>	<circle cx="18.2" cy="17.3" r="1.9"/></g>
<g id="amenity-boatramp"><path d="M20 21c-1.39 0-2.78-.47-4-1.32-2.44 1.71-5.56 1.71-8 0C6.78 20.53 5.39 21 4 21H2v2h2c1.38 0 2.74-.35 4-.99 2.52 1.29 5.48 1.29 8 0 1.26.65 2.62.99 4 .99h2v-2h-2zM3.95 19H4c1.6 0 3.02-.88 4-2 .98 1.12 2.4 2 4 2s3.02-.88 4-2c.98 1.12 2.4 2 4 2h.05l1.89-6.68c.08-.26.06-.54-.06-.78s-.34-.42-.6-.5L20 10.62V6c0-1.1-.9-2-2-2h-3V1H9v3H6c-1.1 0-2 .9-2 2v4.62l-1.29.42c-.26.08-.48.26-.6.5s-.15.52-.06.78L3.95 19zM6 6h12v3.97L12 8 6 9.97V6z"></path></g>
<g id="amenity-breakfast"><path d="M20 3H4v10c0 2.21 1.79 4 4 4h6c2.21 0 4-1.79 4-4v-3h2c1.11 0 2-.9 2-2V5c0-1.11-.89-2-2-2zm0 5h-2V5h2v3zM4 19h16v2H4z"></path></g>
<g id="amenity-businesscenter"><path d="M10 16v-1H3.01L3 19c0 1.11.89 2 2 2h14c1.11 0 2-.89 2-2v-4h-7v1h-4zm10-9h-4.01V5l-2-2h-4l-2 2v2H4c-1.1 0-2 .9-2 2v3c0 1.11.89 2 2 2h6v-2h4v2h6c1.1 0 2-.9 2-2V9c0-1.1-.9-2-2-2zm-6 0h-4V5h4v2z"></path></g>
<g id="amenity-cabletv"><path d="M21 6h-7.59l3.29-3.29L16 2l-4 4-4-4-.71.71L10.59 6H3c-1.1 0-2 .89-2 2v12c0 1.1.9 2 2 2h18c1.1 0 2-.9 2-2V8c0-1.11-.9-2-2-2zm0 14H3V8h18v12zM9 10v8l7-4z"></path></g>
<g id="amenity-casino"><path d="M19 3H5c-1.1 0-2 .9-2 2v14c0 1.1.9 2 2 2h14c1.1 0 2-.9 2-2V5c0-1.1-.9-2-2-2zM7.5 18c-.83 0-1.5-.67-1.5-1.5S6.67 15 7.5 15s1.5.67 1.5 1.5S8.33 18 7.5 18zm0-9C6.67 9 6 8.33 6 7.5S6.67 6 7.5 6 9 6.67 9 7.5 8.33 9 7.5 9zm4.5 4.5c-.83 0-1.5-.67-1.5-1.5s.67-1.5 1.5-1.5 1.5.67 1.5 1.5-.67 1.5-1.5 1.5zm4.5 4.5c-.83 0-1.5-.67-1.5-1.5s.67-1.5 1.5-1.5 1.5.67 1.5 1.5-.67 1.5-1.5 1.5zm0-9c-.83 0-1.5-.67-1.5-1.5S15.67 6 16.5 6s1.5.67 1.5 1.5S17.33 9 16.5 9z"></path></g>
<g id="amenity-cornhole"><path d="M22.9,16.2c-0.1,0.2-0.1,0.5-0.1,0.8c0,0.4-0.2,0.5-0.6,0.5H8.4c-2.2,0-4.4,0-6.6,0c-0.4,0-0.5-0.1-0.6-0.5c-0.1-1.5-0.5-1.3,1.1-1.3h19.9c0.2,0,0.4,0,0.7,0.1V16.2z"/><path d="M12,14.5H1.8c-0.2,0-0.5-0.1-0.7-0.2c0.1-0.2,0.2-0.4,0.3-0.6C3.1,11.5,4.9,9.2,6.6,7c0.2-0.3,0.6-0.5,0.9-0.5c3,0,5.9,0,8.9,0c0.3,0,0.6,0.2,0.8,0.4c1.8,2.3,3.5,4.6,5.3,6.8c0.1,0.2,0.2,0.4,0.2,0.6c-0.2,0.1-0.4,0.1-0.6,0.2L12,14.5zM11.9,7.9c-1.4,0-2.6,0.4-2.6,1s1.1,1,2.6,1s2.5-0.4,2.5-1S13.3,7.9,11.9,7.9L11.9,7.9z"/></g>
<g id="amenity-dogpark"><circle cx="4.5" cy="9.5" r="2.5"></circle><circle cx="9" cy="5.5" r="2.5"></circle><circle cx="15" cy="5.5" r="2.5"></circle><circle cx="19.5" cy="9.5" r="2.5"></circle><path d="M17.34 14.86c-.87-1.02-1.6-1.89-2.48-2.91-.46-.54-1.05-1.08-1.75-1.32-.11-.04-.22-.07-.33-.09-.25-.04-.52-.04-.78-.04s-.53 0-.79.05c-.11.02-.22.05-.33.09-.7.24-1.28.78-1.75 1.32-.87 1.02-1.6 1.89-2.48 2.91-1.31 1.31-2.92 2.76-2.62 4.79.29 1.02 1.02 2.03 2.33 2.32.73.15 3.06-.44 5.54-.44h.18c2.48 0 4.81.58 5.54.44 1.31-.29 2.04-1.31 2.33-2.32.31-2.04-1.3-3.49-2.61-4.8z"></path></g>
<g id="amenity-dumpstation"><path d="M13,14.6c-0.5,0-0.9-0.4-0.9-0.9s0.4-0.9,0.9-0.9s0.9,0.4,0.9,0.9C13.9,14.2,13.5,14.6,13,14.6z M19.2,9.2h-3.6V6.5h3.6V9.2z M21,11.9V6.5c0-1-0.8-1.8-1.8-1.8H5.4C4.6,4.7,4,5.3,4,6.1v0.4l0,0v8.1H1.2l3.7,4.6l3.7-4.6H5.8V6.5H13v2.7H6.7v2.7c0,1,0.8,1.8,1.8,1.8h1.8c0,1.5,1.2,2.7,2.7,2.7s2.7-1.2,2.7-2.7h7.2v-1.8H21z"/></g>
<g id="amenity-electric15a"><path d="M17,5.8V0.9h-2.5v4.9H9.6V0.9H7.2v4.9l0,0C5.9,5.9,4.8,6.9,4.7,8.2v6.7l4.3,4.4v3.6h6.1v-3.6l4.3-4.3V8.2C19.4,6.9,18.3,5.9,17,5.8z M10.3,16.1H8.7V9.8l-1.6,0.6V9l3-1.2h0.2L10.3,16.1z M12.8,12l0.4-4.2h4v1.4h-2.7l-0.1,1.7c0.3-0.2,0.6-0.3,1-0.3c0.6,0,1.2,0.2,1.6,0.7c0.4,0.6,0.6,1.3,0.6,2.1c0,0.7-0.2,1.4-0.7,2c-0.4,0.5-1.1,0.8-1.8,0.8c-0.9,0-1.7-0.4-2.1-1.2c-0.2-0.4-0.3-0.8-0.3-1.3h1.6c0,0.3,0.1,0.6,0.3,0.8c0.1,0.2,0.3,0.4,0.5,0.4c0.3,0,0.5-0.1,0.6-0.4c0.2-0.4,0.2-0.8,0.2-1.1c0-0.4-0.1-0.8-0.3-1.1c-0.2-0.2-0.4-0.4-0.7-0.4c-0.3,0-0.5,0.1-0.7,0.3l-0.1,0.1L12.8,12z"/></g>
<g id="amenity-electric30a"><path d="M16.9,5.9V1h-2.5v4.9H9.6V1H7.1v4.9l0,0C5.8,6,4.8,7,4.7,8.3V15L9,19.3V23h6.1v-3.6l4.3-4.3V8.3C19.3,7,18.2,6,16.9,5.9z M8.1,11.3h0.8c0.3,0,0.5-0.1,0.7-0.3c0.2-0.2,0.2-0.5,0.2-0.8c0-0.3-0.1-0.5-0.2-0.8C9.4,9.2,9.2,9.1,9,9.1c-0.2,0-0.4,0.1-0.6,0.3C8.3,9.6,8.2,9.8,8.2,10H6.6c0-0.4,0.1-0.8,0.3-1.2C7.1,8.5,7.3,8.2,7.7,8c0.4-0.2,0.8-0.3,1.2-0.3c0.7,0,1.3,0.2,1.8,0.6c0.4,0.5,0.7,1.1,0.6,1.7c0,0.4-0.1,0.7-0.3,1c-0.2,0.3-0.5,0.6-0.8,0.7c0.4,0.2,0.7,0.4,0.9,0.8c0.2,0.4,0.3,0.8,0.3,1.2c0,0.7-0.2,1.3-0.7,1.8c-0.5,0.5-1.2,0.7-1.8,0.7c-0.6,0-1.3-0.2-1.7-0.7c-0.4-0.5-0.7-1.1-0.7-1.7h1.6c0,0.3,0.1,0.5,0.2,0.7C8.4,14.8,8.7,15,9,15c0.3,0,0.5-0.1,0.7-0.3c0.2-0.2,0.3-0.5,0.2-0.8c0-0.8-0.3-1.2-0.9-1.2H8.1V11.3z M17.4,12.7c0.1,0.9-0.2,1.8-0.6,2.6c-0.4,0.6-1.1,0.9-1.8,0.9c-0.7,0-1.4-0.3-1.8-0.9c-0.5-0.8-0.7-1.6-0.6-2.5v-1.6c-0.1-0.9,0.2-1.8,0.6-2.6c0.4-0.6,1.1-1,1.8-0.9c0.7,0,1.4,0.3,1.8,0.9c0.5,0.8,0.7,1.7,0.6,2.6L17.4,12.7z M15.7,11.1c0-0.5,0-1-0.2-1.5c-0.1-0.3-0.3-0.5-0.6-0.5c-0.5,0-0.8,0.6-0.8,1.8V13c0,0.5,0,1,0.2,1.5c0.1,0.3,0.3,0.5,0.6,0.5c0.3,0,0.5-0.2,0.6-0.5c0.2-0.4,0.2-0.9,0.2-1.4L15.7,11.1z"/></g>
<g id="amenity-electric50a"><path d="M16.9,5.9V1h-2.5v4.9H9.5V1H7.1v4.9l0,0C5.8,6,4.7,7,4.6,8.3V15l4.3,4.3V23h6.1v-3.6l4.3-4.3V8.3C19.3,7,18.2,6,16.9,5.9z M6.9,12.1l0.4-4.2h4v1.4H8.6L8.4,11c0.3-0.2,0.6-0.3,1-0.3c0.6,0,1.2,0.2,1.6,0.7c0.4,0.6,0.6,1.3,0.6,2.1c0,0.7-0.2,1.4-0.7,2c-0.4,0.5-1.1,0.8-1.8,0.8c-0.4,0-0.9,0-1.3-0.2c-0.4-0.2-0.7-0.5-0.9-0.9c-0.2-0.4-0.3-0.8-0.3-1.3h1.6c0,0.3,0.1,0.6,0.3,0.8c0.2,0.3,0.7,0.4,1,0.1c0.1-0.1,0.2-0.1,0.2-0.2c0.2-0.4,0.2-0.8,0.2-1.1c0-0.4-0.1-0.8-0.3-1.1C9.5,12.1,9.3,12,9,12c-0.3,0-0.5,0.1-0.7,0.3l-0.1,0.1L6.9,12.1z M17.4,12.7c0.1,0.9-0.2,1.8-0.6,2.6c-0.4,0.6-1.1,0.9-1.8,0.9c-0.7,0-1.4-0.3-1.8-0.9c-0.5-0.8-0.7-1.6-0.6-2.5v-1.6c-0.1-0.9,0.2-1.8,0.6-2.6c0.4-0.6,1.1-0.9,1.8-0.9c0.7,0,1.4,0.3,1.8,0.9c0.5,0.8,0.7,1.7,0.6,2.6V12.7z M15.8,11.1c0-0.5,0-1-0.2-1.5c-0.1-0.3-0.3-0.5-0.6-0.5c-0.5,0-0.8,0.6-0.8,1.8V13c0,0.5,0,1,0.2,1.5c0.1,0.3,0.3,0.5,0.6,0.5c0.3,0,0.5-0.2,0.6-0.5c0.1-0.5,0.2-0.9,0.2-1.4L15.8,11.1z"></path></g>
<g id="amenity-equestrian"><path d="M4.8,4.2c-0.6-0.8-0.2-1.5,0-2.3c0-0.1,0.3-0.3,0.5-0.3c0.6,0,1.3,0,1.9,0c0.4,0,0.6,0.2,0.6,0.6c0.1,1-0.1,2.1-0.7,3c-1.3,1.9-1.9,4.2-1.8,6.6c0.1,3.4,2.8,6.1,6.2,6.4c3.3,0.2,6.3-2.1,6.9-5.3c0.4-2,0.1-4.1-0.7-5.9c-0.4-0.8-0.8-1.6-1.3-2.4c-0.3-0.8-0.4-1.7-0.2-2.6c0-0.1,0.3-0.3,0.5-0.3c0.6,0,1.3,0,1.9,0c0.2,0,0.5,0.1,0.5,0.2c0.3,0.6,0.4,1.4,0.2,2.1c-0.1,0.2-0.1,0.5,0.1,0.7c1.5,2,2.3,4.4,2.4,6.9c0.2,4.2-1.7,8.4-5.8,10.1c-3.7,1.5-7.9,0.7-10.8-2c-1.6-1.7-2.6-3.9-2.8-6.2c-0.4-3.2,0.4-6.3,2.3-8.9C4.7,4.4,4.8,4.3,4.8,4.2z M8.9,18.9c-0.5,0-0.8,0.4-0.8,0.8s0.4,0.8,0.8,0.8s0.8-0.4,0.8-0.8c0,0,0,0,0,0C9.7,19.3,9.4,18.9,8.9,18.9z M15.9,19.8c0-0.4-0.3-0.8-0.7-0.9c-0.5-0.1-0.9,0.3-0.9,0.7c-0.1,0.5,0.3,0.9,0.7,0.9C15.4,20.6,15.9,20.3,15.9,19.8C15.9,19.8,15.9,19.8,15.9,19.8z M5.7,16.2c0-0.4-0.3-0.7-0.7-0.7c-0.4,0-0.7,0.3-0.7,0.7c0,0.4,0.3,0.7,0.7,0.7c0,0,0,0,0,0C5.4,16.9,5.7,16.6,5.7,16.2C5.7,16.2,5.7,16.2,5.7,16.2z M18.9,16.9c0.4,0,0.7-0.3,0.7-0.7c0,0,0,0,0,0c0-0.4-0.3-0.7-0.7-0.7c-0.4,0-0.7,0.3-0.7,0.7C18.2,16.6,18.5,16.9,18.9,16.9C18.9,16.9,18.9,16.9,18.9,16.9z M3.8,11.6c0.3,0,0.6-0.3,0.6-0.6c0-0.3-0.3-0.6-0.6-0.6c-0.3,0-0.6,0.2-0.6,0.5c0,0,0,0.1,0,0.1C3.2,11.4,3.5,11.6,3.8,11.6z M20.1,11.6c0.4,0,0.6-0.2,0.6-0.6c0-0.3-0.2-0.6-0.5-0.6c0,0-0.1,0-0.1,0c-0.3,0-0.6,0.3-0.6,0.6C19.5,11.3,19.8,11.6,20.1,11.6L20.1,11.6z"/></g>
<g id="amenity-familyfriendly"><path d="M13 2v8h8c0-4.42-3.58-8-8-8zm6.32 13.89C20.37 14.54 21 12.84 21 11H6.44l-.95-2H2v2h2.22s1.89 4.07 2.12 4.42c-1.1.59-1.84 1.75-1.84 3.08C4.5 20.43 6.07 22 8 22c1.76 0 3.22-1.3 3.46-3h2.08c.24 1.7 1.7 3 3.46 3 1.93 0 3.5-1.57 3.5-3.5 0-1.04-.46-1.97-1.18-2.61zM8 20c-.83 0-1.5-.67-1.5-1.5S7.17 17 8 17s1.5.67 1.5 1.5S8.83 20 8 20zm9 0c-.83 0-1.5-.67-1.5-1.5S16.17 17 17 17s1.5.67 1.5 1.5S17.83 20 17 20z"></path></g>
<g id="amenity-firepits"><path d="M13.5.67s.74 2.65.74 4.8c0 2.06-1.35 3.73-3.41 3.73-2.07 0-3.63-1.67-3.63-3.73l.03-.36C5.21 7.51 4 10.62 4 14c0 4.42 3.58 8 8 8s8-3.58 8-8C20 8.61 17.41 3.8 13.5.67zM11.71 19c-1.78 0-3.22-1.4-3.22-3.14 0-1.62 1.05-2.76 2.81-3.12 1.77-.36 3.6-1.21 4.62-2.58.39 1.29.59 2.65.59 4.04 0 2.65-2.15 4.8-4.8 4.8z"></path></g>
<g id="amenity-fishing"><path d="M1.5,12c0.1-0.2,0.2-0.5,0.3-0.7c0.7-1,1.6-1.9,2.8-2.5c1.2-0.7,2.5-1,3.9-1.1c0.3,0,0.6-0.1,0.9-0.2C10.6,7,11.9,7,13.2,7.4c0.1,0,0.2,0,0.3,0.1c0.1,0,0.1,0.1,0.2,0.1c-0.1,0.1-0.1,0.1-0.1,0.2L13,8.2l-0.2,0.2c0.1,0,0.1,0.1,0.2,0.1c1.3,0.5,2.5,1.1,3.6,1.9c0.2,0.1,0.5,0.3,0.7,0.4c0.2,0.2,0.5,0.2,0.8,0.1l3.1-1.7c0.3-0.2,0.6-0.3,0.9-0.5c0.2-0.1,0.3,0,0.5,0.1v0.3c-0.2,0.4-0.5,0.8-0.7,1.2s-0.5,0.7-0.7,1c-0.4,0.5-0.4,1.3,0,1.8c0.4,0.6,0.9,1.1,1.4,1.7V15c-0.3,0-0.6,0-0.8-0.1c-1.4-0.4-2.7-0.9-4-1.6c-0.2-0.1-0.4-0.1-0.5,0.1c-1.2,0.9-2.6,1.6-4.1,2.1c-0.1,0.1-0.3,0.1-0.4,0.2l0.3,0.3l0.5,0.4l0.1,0.1c0,0.1-0.1,0.1-0.1,0.1c-2,0.4-3.8,0.2-5.4-0.6c-0.3-0.1-0.5-0.2-0.8-0.2c-0.8-0.1-1.5-0.3-2.2-0.6c-0.1,0-0.1-0.1-0.2-0.1c-0.1-0.1-0.1-0.2,0-0.3s0.3-0.2,0.5-0.3s0.3-0.2,0.3-0.4H5.5l-1,0.4c-0.4,0.2-0.8,0.1-1.2-0.1c-0.3-0.2-0.7-0.4-1-0.6c-0.4-0.3-0.8-0.7-0.9-1.1C1.4,12.4,1.4,12.2,1.5,12z M7.6,14.4C8.4,13.7,9,12.7,9,11.5c-0.1-1-0.6-1.9-1.3-2.4C8.6,10.7,8.5,12.8,7.6,14.4z M4.5,10.9c0,0.3,0.2,0.5,0.5,0.5l0,0c0.3,0,0.5-0.2,0.5-0.5S5.3,10.4,5,10.4H4.9C4.7,10.4,4.5,10.6,4.5,10.9z"/></g>
<g id="amenity-fitnesscenter"><path d="M20.57 14.86L22 13.43 20.57 12 17 15.57 8.43 7 12 3.43 10.57 2 9.14 3.43 7.71 2 5.57 4.14 4.14 2.71 2.71 4.14l1.43 1.43L2 7.71l1.43 1.43L2 10.57 3.43 12 7 8.43 15.57 17 12 20.57 13.43 22l1.43-1.43L16.29 22l2.14-2.14 1.43 1.43 1.43-1.43-1.43-1.43L22 16.29z"></path></g>
<g id="amenity-generalstore"><path d="M20 4H4v2h16V4zm1 10v-2l-1-5H4l-1 5v2h1v6h10v-6h4v6h2v-6h1zm-9 4H6v-4h6v4z"></path></g>
<g id="amenity-golfcourse"><circle cx="19.5" cy="19.5" r="1.5"></circle><path d="M17 5.92L9 2v18H7v-1.73c-1.79.35-3 .99-3 1.73 0 1.1 2.69 2 6 2s6-.9 6-2c0-.99-2.16-1.81-5-1.97V8.98l6-3.06z"></path></g>
<g id="amenity-handicap"><circle cx="12" cy="4" r="2"></circle><path d="M19 13v-2c-1.54.02-3.09-.75-4.07-1.83l-1.29-1.43c-.17-.19-.38-.34-.61-.45-.01 0-.01-.01-.02-.01H13c-.35-.2-.75-.3-1.19-.26C10.76 7.11 10 8.04 10 9.09V15c0 1.1.9 2 2 2h5v5h2v-5.5c0-1.1-.9-2-2-2h-3v-3.45c1.29 1.07 3.25 1.94 5 1.95zm-6.17 5c-.41 1.16-1.52 2-2.83 2-1.66 0-3-1.34-3-3 0-1.31.84-2.41 2-2.83V12.1c-2.28.46-4 2.48-4 4.9 0 2.76 2.24 5 5 5 2.42 0 4.44-1.72 4.9-4h-2.07z"></path></g>
<g id="amenity-hiking"><path d="M13.5 5.5c1.1 0 2-.9 2-2s-.9-2-2-2-2 .9-2 2 .9 2 2 2zM9.8 8.9L7 23h2.1l1.8-8 2.1 2v6h2v-7.5l-2.1-2 .6-3C14.8 12 16.8 13 19 13v-2c-1.9 0-3.5-1-4.3-2.4l-1-1.6c-.4-.6-1-1-1.7-1-.3 0-.5.1-.8.1L6 8.3V13h2V9.6l1.8-.7"></path></g>
<g id="amenity-hottub"><path d="M11.15 12c-.31-.22-.59-.46-.82-.72l-1.4-1.55c-.19-.21-.43-.38-.69-.5-.29-.14-.62-.23-.96-.23h-.03C6.01 9 5 10.01 5 11.25V12H2v8c0 1.1.9 2 2 2h16c1.1 0 2-.9 2-2v-8H11.15zM7 20H5v-6h2v6zm4 0H9v-6h2v6zm4 0h-2v-6h2v6zm4 0h-2v-6h2v6zm-.35-14.14l-.07-.07c-.57-.62-.82-1.41-.67-2.2L18 3h-1.89l-.06.43c-.2 1.36.27 2.71 1.3 3.72l.07.06c.57.62.82 1.41.67 2.2l-.11.59h1.91l.06-.43c.21-1.36-.27-2.71-1.3-3.71zm-4 0l-.07-.07c-.57-.62-.82-1.41-.67-2.2L14 3h-1.89l-.06.43c-.2 1.36.27 2.71 1.3 3.72l.07.06c.57.62.82 1.41.67 2.2l-.11.59h1.91l.06-.43c.21-1.36-.27-2.71-1.3-3.71z"></path></g>
<g id="amenity-horseshoes"><path d="M4.8,4.2c-0.6-0.8-0.2-1.5,0-2.3c0-0.1,0.3-0.3,0.5-0.3c0.6,0,1.3,0,1.9,0c0.4,0,0.6,0.2,0.6,0.6c0.1,1-0.1,2.1-0.7,3c-1.3,1.9-1.9,4.2-1.8,6.6c0.1,3.4,2.8,6.1,6.2,6.4c3.3,0.2,6.3-2.1,6.9-5.3c0.4-2,0.1-4.1-0.7-5.9c-0.4-0.8-0.8-1.6-1.3-2.4c-0.3-0.8-0.4-1.7-0.2-2.6c0-0.1,0.3-0.3,0.5-0.3c0.6,0,1.3,0,1.9,0c0.2,0,0.5,0.1,0.5,0.2c0.3,0.6,0.4,1.4,0.2,2.1c-0.1,0.2-0.1,0.5,0.1,0.7c1.5,2,2.3,4.4,2.4,6.9c0.2,4.2-1.7,8.4-5.8,10.1c-3.7,1.5-7.9,0.7-10.8-2c-1.6-1.7-2.6-3.9-2.8-6.2c-0.4-3.2,0.4-6.3,2.3-8.9C4.7,4.4,4.8,4.3,4.8,4.2z M8.9,18.9c-0.5,0-0.8,0.4-0.8,0.8s0.4,0.8,0.8,0.8s0.8-0.4,0.8-0.8c0,0,0,0,0,0C9.7,19.3,9.4,18.9,8.9,18.9z M15.9,19.8c0-0.4-0.3-0.8-0.7-0.9c-0.5-0.1-0.9,0.3-0.9,0.7c-0.1,0.5,0.3,0.9,0.7,0.9C15.4,20.6,15.9,20.3,15.9,19.8C15.9,19.8,15.9,19.8,15.9,19.8z M5.7,16.2c0-0.4-0.3-0.7-0.7-0.7c-0.4,0-0.7,0.3-0.7,0.7c0,0.4,0.3,0.7,0.7,0.7c0,0,0,0,0,0C5.4,16.9,5.7,16.6,5.7,16.2C5.7,16.2,5.7,16.2,5.7,16.2z M18.9,16.9c0.4,0,0.7-0.3,0.7-0.7c0,0,0,0,0,0c0-0.4-0.3-0.7-0.7-0.7c-0.4,0-0.7,0.3-0.7,0.7C18.2,16.6,18.5,16.9,18.9,16.9C18.9,16.9,18.9,16.9,18.9,16.9z M3.8,11.6c0.3,0,0.6-0.3,0.6-0.6c0-0.3-0.3-0.6-0.6-0.6c-0.3,0-0.6,0.2-0.6,0.5c0,0,0,0.1,0,0.1C3.2,11.4,3.5,11.6,3.8,11.6z M20.1,11.6c0.4,0,0.6-0.2,0.6-0.6c0-0.3-0.2-0.6-0.5-0.6c0,0-0.1,0-0.1,0c-0.3,0-0.6,0.3-0.6,0.6C19.5,11.3,19.8,11.6,20.1,11.6L20.1,11.6z"/></g>
<g id="amenity-laundry"><path d="M9.17 16.83c1.56 1.56 4.1 1.56 5.66 0 1.56-1.56 1.56-4.1 0-5.66l-5.66 5.66zM18 2.01L6 2c-1.11 0-2 .89-2 2v16c0 1.11.89 2 2 2h12c1.11 0 2-.89 2-2V4c0-1.11-.89-1.99-2-1.99zM10 4c.55 0 1 .45 1 1s-.45 1-1 1-1-.45-1-1 .45-1 1-1zM7 4c.55 0 1 .45 1 1s-.45 1-1 1-1-.45-1-1 .45-1 1-1zm5 16c-3.31 0-6-2.69-6-6s2.69-6 6-6 6 2.69 6 6-2.69 6-6 6z"></path></g>
<g id="amenity-livemusic"><path d="M12 3v10.55c-.59-.34-1.27-.55-2-.55-2.21 0-4 1.79-4 4s1.79 4 4 4 4-1.79 4-4V7h4V3h-6z"></path></g>
<g id="amenity-minigolf"><circle cx="19.5" cy="19.5" r="1.5"></circle><path d="M17 5.92L9 2v18H7v-1.73c-1.79.35-3 .99-3 1.73 0 1.1 2.69 2 6 2s6-.9 6-2c0-.99-2.16-1.81-5-1.97V8.98l6-3.06z"></path></g>
<g id="amenity-petfriendly"><circle cx="4.5" cy="9.5" r="2.5"></circle><circle cx="9" cy="5.5" r="2.5"></circle><circle cx="15" cy="5.5" r="2.5"></circle><circle cx="19.5" cy="9.5" r="2.5"></circle><path d="M17.34 14.86c-.87-1.02-1.6-1.89-2.48-2.91-.46-.54-1.05-1.08-1.75-1.32-.11-.04-.22-.07-.33-.09-.25-.04-.52-.04-.78-.04s-.53 0-.79.05c-.11.02-.22.05-.33.09-.7.24-1.28.78-1.75 1.32-.87 1.02-1.6 1.89-2.48 2.91-1.31 1.31-2.92 2.76-2.62 4.79.29 1.02 1.02 2.03 2.33 2.32.73.15 3.06-.44 5.54-.44h.18c2.48 0 4.81.58 5.54.44 1.31-.29 2.04-1.31 2.33-2.32.31-2.04-1.3-3.49-2.61-4.8z"></path></g>
<g id="amenity-pickleball"><g><g><path d="M9.1,17.7c0,0.1,0,0.2-0.1,0.3c-0.6-0.2-1.2-0.6-1.6-1.1c0-0.3,0-0.6,0-0.8c0-0.3,0-0.5,0-0.8	c-0.3-0.4-0.6-0.9-0.9-1.3C6.2,13.5,6,13,5.7,12.5c-0.5-0.9-0.6-2-0.3-3.1l1.9-5.9C7.9,2,9.7,1.1,11.3,1.6l4.5,1.6	c1.6,0.6,2.4,2.3,1.9,3.8c-0.3-0.2-0.6-0.4-1-0.6c0.2-0.4,0.1-0.9-0.1-1.3c-0.3-0.4-0.8-0.8-1.3-0.9c-1.3-0.4-2.6-0.9-3.8-1.3	c-0.5-0.3-1.1-0.3-1.7-0.2c-1,0.4-1.3,1.6-1.6,2.5C7.7,6.4,7.3,7.6,6.8,8.7c-0.3,0.8-0.5,1.6-0.4,2.4C6.6,12,7,12.7,7.7,13.2	c0.7,0.5,1.4,0.9,2.2,1.1c0.5,0.2,1.1,0.3,1.6,0.3c0.2,0,0.4,0,0.7-0.1c0.3-0.1,0.5-0.2,0.8-0.3c0.2,0.1,0.5,0.3,0.7,0.3	c0.2,0.1,0.3,0.1,0.5,0.1c-0.6,0.4-1.2,0.7-1.8,0.9c-0.6,0.2-1.2,0.3-1.8,0.5c-0.3,0.1-0.5,0.3-0.7,0.6c-0.1,0.2-0.2,0.4-0.3,0.6	c0,0.1-0.1,0.1-0.2,0.2l-0.2,0.1C9.2,17.5,9.2,17.6,9.1,17.7z"/><path d="M9,18.2c-0.1,0.2-0.1,0.5-0.2,0.7c-0.6-0.2-1.1-0.6-1.6-1.1c0.1-0.3,0.2-0.5,0.3-0.7C7.8,17.6,8.4,18,9,18.2z	"/><path d="M8.6,19.2c-0.1,0.3-0.2,0.5-0.3,0.8c-0.6-0.2-1.1-0.6-1.6-1.1c0.1-0.3,0.2-0.5,0.3-0.8	C7.5,18.7,8,19,8.6,19.2z"/><path d="M8.2,20.3C8.1,20.7,8,20.9,8,21.1c-0.6-0.3-1.1-0.6-1.6-1.1c0.1-0.3,0.2-0.5,0.3-0.8	C7.1,19.8,7.6,20.1,8.2,20.3z"/><path d="M7.9,21.4c0,0.2,0.2,0.1,0,0.7c0,0.1,0.1-0.1,0,0s-0.3,0.5-0.6,0.4c-0.5-0.2-0.9-0.3-1.4-0.5s-0.2-0.8,0-1	s0.1-0.1,0.2-0.1c0.1-0.1,0.2-0.2,0.2-0.3v-0.1c0,0,0,0,0-0.1C6.7,20.8,7.3,21.2,7.9,21.4z"/>	</g><path d="M18,12.8c-1.3,1.6-3.6,1.9-5.3,0.6s-1.9-3.6-0.6-5.3c0.4-0.5,1-0.9,1.6-1.2c0.7-0.3,1.4-0.3,2.1-0.2c-0.1,0-0.2,0-0.2,0.1c-0.1,0.3,0.5,0.6,0.7,0.6s0.8,0.3,0.9,0c0,0,0-0.1,0-0.1c0.3,0.2,0.5,0.4,0.8,0.7c1,1.2,1.2,2.9,0.4,4.3C18.2,12.5,18.1,12.6,18,12.8z M12.3,11.3c-0.1-0.4-0.4-0.7-0.5-0.7s0,0.7,0,0.9s0.3,0.8,0.5,0.7S12.4,11.7,12.3,11.3S12.4,11.7,12.3,11.3z M13.3,7.4c-0.2,0.1-0.5,0.4-0.4,0.7c0.1,0.3,0.6,0.1,0.8,0s0.5-0.4,0.4-0.7S13.5,7.2,13.3,7.4z M13.6,9.7c0-0.3-0.3-0.7-0.7-0.7c-0.4,0.1-0.6,0.4-0.5,0.8c0,0,0,0,0,0c0,0.3,0.3,0.7,0.7,0.7S13.6,10,13.6,9.7z M16,12.8c-0.2,0.1-0.6,0.3-0.5,0.6s0.6,0.2,0.8,0.1s0.6-0.3,0.5-0.6S16.2,12.7,16,12.8z M14.7,12.6c0.5-0.6-0.7-1.5-1.2-0.9S14.2,13.3,14.7,12.6L14.7,12.6z M16,9.2c0.2-0.3,0.2-0.8-0.2-1c-0.3-0.2-0.8-0.2-1,0.2c-0.2,0.3-0.2,0.8,0.1,1C15.3,9.6,15.8,9.5,16,9.2L16,9.2z M18,10C18.3,9.9,17.8,10.1,18,10c0.5-0.2-0.1-1.6-0.6-1.4c-0.3,0.2-0.2,0.7-0.1,0.9S17.7,10.1,18,10L18,10z M17.2,11.6c0.2-0.3,0.2-0.7-0.1-1c-0.3-0.3-0.8-0.3-1,0.1c-0.3,0.3-0.3,0.8,0.1,1C16.4,11.9,16.9,11.9,17.2,11.6C17.2,11.6,17.2,11.6,17.2,11.6z"/></g><path class="a" d="M18,12.9a3.75,3.75,0,1,1-4.27-5.83,3.55,3.55,0,0,1,2.09-.15A.22.22,0,0,0,15.6,7c-.09.3.54.55.69.61s.82.27.91,0a.21.21,0,0,0,0-.13,4.25,4.25,0,0,1,.75.67,3.8,3.8,0,0,1,.4,4.26A2.72,2.72,0,0,1,18,12.9ZM12.3,11.42c-.15-.42-.39-.72-.54-.66s0,.72,0,.87.3.76.54.67.12-.45,0-.88S12.45,11.85,12.3,11.42Zm1.06-3.93c-.18.13-.51.4-.39.67s.63.15.81,0,.52-.42.43-.67-.64-.15-.85,0Zm.24,2.3c0-.33-.3-.72-.66-.66a.65.65,0,0,0-.49.78c0,.33.28.73.67.67S13.63,10.12,13.6,9.79ZM16,12.93c-.24.1-.6.34-.51.64s.57.24.78.15.64-.33.52-.6S16.23,12.84,16,12.93Zm-1.27-.15c.48-.6-.66-1.54-1.18-.9S14.21,13.42,14.72,12.78Zm1.36-3.47A.75.75,0,1,0,15,9.43.77.77,0,0,0,16.08,9.31Zm2,.81c.21-.09-.22.12,0,0,.54-.24-.06-1.6-.61-1.36-.3.16-.18.7-.06.91S17.77,10.28,18.05,10.12Zm-.82,1.58a.73.73,0,0,0-.09-1,.74.74,0,1,0,.09,1Z" transform="translate(-5.27 -1.62)"/></g>
<g id="amenity-picnictables"><path d="M17.6,12.1h4v1.9h-3.3c0.4,1.2,0.8,2.3,1.2,3.5h-2c-0.1,0-0.1,0-0.1-0.1l-1.2-3.2c0-0.1-0.1-0.1-0.1-0.1H7.4c-0.1,0.5-0.3,1-0.5,1.5c-0.3,0.7-0.4,1.3-0.7,2c0,0.1-0.1,0.1-0.1,0.1h-2c0.4-1.2,0.8-2.3,1.2-3.5H2.3v-1.9h3.5c0.1,0,0.1,0,0.1-0.1c0.4-1.2,0.9-2.5,1.3-3.8H5V6.4h13.8v1.9h-2.7C16.7,9.4,17.1,10.7,17.6,12.1z M15.5,11.9c-0.1-0.5-0.3-0.8-0.4-1.2C14.8,9.8,14.4,9,14.1,8c0,0,0-0.1-0.1-0.1H9.6c-0.1,0-0.1,0-0.1,0.1C9.3,8.6,9,9.1,8.9,9.6s-0.4,1.2-0.7,1.9c0,0.1-0.1,0.3-0.1,0.4L15.5,11.9z"/></g>
<g id="amenity-pingpong"><path d="M18.3,18.1c0,1-0.7,1.8-1.7,1.8c-1,0-1.8-0.7-1.8-1.7c0-1,0.8-1.8,1.8-1.9c0,0,0,0,0,0C17.5,16.3,18.3,17.1,18.3,18.1z"/><path d="M14.3,21.6H9.7c0.4-1.2,0.7-2.3,1-3.4c0.4-1.1-0.1-2.4-1.2-2.8c0,0-0.1,0-0.1,0C8.5,15,7.4,15,6.8,14C6,12.6,5.5,11,5.6,9.3c0-2.5,1.4-4.8,3.6-6.1c2.8-1.6,6.3-0.6,7.9,2.1c0,0,0,0,0,0c1.7,2.5,1.7,5.8,0.2,8.4c-0.2,0.5-0.8,0.8-1.3,1.1c-0.2,0.1-0.4,0.2-0.7,0.3c-2.1,0.7-2.5,1.5-1.9,3.6C13.7,19.7,14,20.6,14.3,21.6z M11,18.9c-0.2,0.7-0.4,1.4-0.6,2.1h3.1c-0.1-0.4-0.1-0.7-0.2-1c-0.2-0.5-0.3-1.1-0.5-1.6c-0.5-1.8-0.1-2.6,2-3.8H9.1C11.3,15.7,11.7,16.7,11,18.9z"/></g>
<g id="amenity-playground"><path d="M11.99 2C6.47 2 2 6.48 2 12s4.47 10 9.99 10C17.52 22 22 17.52 22 12S17.52 2 11.99 2zM12 20c-4.42 0-8-3.58-8-8s3.58-8 8-8 8 3.58 8 8-3.58 8-8 8zm3.5-9c.83 0 1.5-.67 1.5-1.5S16.33 8 15.5 8 14 8.67 14 9.5s.67 1.5 1.5 1.5zm-7 0c.83 0 1.5-.67 1.5-1.5S9.33 8 8.5 8 7 8.67 7 9.5 7.67 11 8.5 11zm3.5 6.5c2.33 0 4.31-1.46 5.11-3.5H6.89c.8 2.04 2.78 3.5 5.11 3.5z"></path></g>
<g id="amenity-pool"><path d="M22 21c-1.11 0-1.73-.37-2.18-.64-.37-.22-.6-.36-1.15-.36-.56 0-.78.13-1.15.36-.46.27-1.07.64-2.18.64s-1.73-.37-2.18-.64c-.37-.22-.6-.36-1.15-.36-.56 0-.78.13-1.15.36-.46.27-1.08.64-2.19.64-1.11 0-1.73-.37-2.18-.64-.37-.23-.6-.36-1.15-.36s-.78.13-1.15.36c-.46.27-1.08.64-2.19.64v-2c.56 0 .78-.13 1.15-.36.46-.27 1.08-.64 2.19-.64s1.73.37 2.18.64c.37.23.59.36 1.15.36.56 0 .78-.13 1.15-.36.46-.27 1.08-.64 2.19-.64 1.11 0 1.73.37 2.18.64.37.22.6.36 1.15.36s.78-.13 1.15-.36c.45-.27 1.07-.64 2.18-.64s1.73.37 2.18.64c.37.23.59.36 1.15.36v2zm0-4.5c-1.11 0-1.73-.37-2.18-.64-.37-.22-.6-.36-1.15-.36-.56 0-.78.13-1.15.36-.45.27-1.07.64-2.18.64s-1.73-.37-2.18-.64c-.37-.22-.6-.36-1.15-.36-.56 0-.78.13-1.15.36-.45.27-1.07.64-2.18.64s-1.73-.37-2.18-.64c-.37-.22-.6-.36-1.15-.36s-.78.13-1.15.36c-.47.27-1.09.64-2.2.64v-2c.56 0 .78-.13 1.15-.36.45-.27 1.07-.64 2.18-.64s1.73.37 2.18.64c.37.22.6.36 1.15.36.56 0 .78-.13 1.15-.36.45-.27 1.07-.64 2.18-.64s1.73.37 2.18.64c.37.22.6.36 1.15.36s.78-.13 1.15-.36c.45-.27 1.07-.64 2.18-.64s1.73.37 2.18.64c.37.22.6.36 1.15.36v2zM8.67 12c.56 0 .78-.13 1.15-.36.46-.27 1.08-.64 2.19-.64 1.11 0 1.73.37 2.18.64.37.22.6.36 1.15.36s.78-.13 1.15-.36c.12-.07.26-.15.41-.23L10.48 5C8.93 3.45 7.5 2.99 5 3v2.5c1.82-.01 2.89.39 4 1.5l1 1-3.25 3.25c.31.12.56.27.77.39.37.23.59.36 1.15.36z"></path><circle cx="16.5" cy="5.5" r="2.5"></circle></g>
<g id="amenity-propane"><path d="M18.7,18V7.5h0c0,0,0,0,0,0V7.5h0c0-0.5-0.2-1-0.5-1.4c-0.7-0.9-1.9-1.4-3-1.2V2.5c0-0.3-0.3-0.5-0.6-0.5L9.5,1.9c0,0,0,0,0,0c-0.3,0-0.6,0.2-0.6,0.6v2.4C8,4.7,7.1,5,6.4,5.5c-0.7,0.5-1.1,1.2-1.1,2h0V18h0v0c0.1,0.7,0.4,1.3,1,1.8c0.2,0.1,0.3,0.4,0.3,0.6c0,0,0,0.1,0,0.1c0.1,0.9,0.9,1.6,1.8,1.5h7.3c0.1,0,0.2,0,0.3,0c0.8-0.1,1.3-0.7,1.4-1.5c0-0.2,0.1-0.5,0.3-0.6c0.2-0.1,0.3-0.3,0.4-0.4C18.4,19.1,18.6,18.6,18.7,18L18.7,18L18.7,18C18.7,18,18.7,18,18.7,18L18.7,18zM10.2,3.2h3.8l0,1.6h-1.6h-2.2L10.2,3.2z M8.5,13.9c0-0.3,0.1-0.6,0.2-0.9c0.8-1.7,2-3.3,3.3-4.6c1.2,1.3,2.3,2.8,3.2,4.4c0.1,0.4,0.2,0.7,0.2,1.1c0,1.8-1.4,3.2-3.1,3.3c-0.1,0-0.1,0-0.2,0C10.2,17.2,8.6,15.8,8.5,13.9z"/></g>
<g id="amenity-pullthru"><path d="M20 17v-6c0-1.1-.9-2-2-2H7V7l-3 3 3 3v-2h4v3H4v3c0 1.1.9 2 2 2h2c0 1.66 1.34 3 3 3s3-1.34 3-3h8v-2h-2zm-9 3c-.55 0-1-.45-1-1s.45-1 1-1 1 .45 1 1-.45 1-1 1zm7-6h-4v-3h4v3zM17 2v2H9v2h8v2l3-3z"></path></g>
<g id="amenity-restaurant"><path d="M8.1 13.34l2.83-2.83L3.91 3.5c-1.56 1.56-1.56 4.09 0 5.66l4.19 4.18zm6.78-1.81c1.53.71 3.68.21 5.27-1.38 1.91-1.91 2.28-4.65.81-6.12-1.46-1.46-4.2-1.1-6.12.81-1.59 1.59-2.09 3.74-1.38 5.27L3.7 19.87l1.41 1.41L12 14.41l6.88 6.88 1.41-1.41L13.41 13l1.47-1.47z"></path></g>
<g id="amenity-restrooms"><path d="M5.5 22v-7.5H4V9c0-1.1.9-2 2-2h3c1.1 0 2 .9 2 2v5.5H9.5V22h-4zM18 22v-6h3l-2.54-7.63C18.18 7.55 17.42 7 16.56 7h-.12c-.86 0-1.63.55-1.9 1.37L12 16h3v6h3zM7.5 6c1.11 0 2-.89 2-2s-.89-2-2-2-2 .89-2 2 .89 2 2 2zm9 0c1.11 0 2-.89 2-2s-.89-2-2-2-2 .89-2 2 .89 2 2 2z"></path></g>
<g id="amenity-sewer"><path d="M21.6,13.9c-0.2-0.5-0.7-1-1.2-1.3c-0.3-0.2-0.7-0.4-1.1-0.5c0.2-0.8,0-1.7-0.6-2.3c-0.4-0.5-1-0.9-1.6-1l0,0c0.3-0.5,0.3-1.1,0.2-1.7c-0.1-0.6-0.5-1.2-1.1-1.5c-0.6-0.3-1.2-0.5-1.9-0.6c-0.9-0.1-1.7-0.4-2.3-1c-0.3-0.7-0.5-1.4-0.6-2.2c-0.1-0.4-0.6-0.2-1.1,0.1c-1,0.7-1.7,1.7-2.2,2.8C7.8,5.6,7.7,6.4,7.8,7.3C7.5,7.3,7.1,7.4,6.8,7.6H6.7c-1,0.6-1.7,1.6-1.7,2.8c0,0.5,0,1.1,0.2,1.6c-0.4,0.1-0.8,0.2-1.1,0.4c-0.4,0.2-0.8,0.4-1.1,0.8c-0.3,0.4-0.6,0.9-0.7,1.4C1.9,15.7,2,17,2.6,18c0.3,0.6,0.7,1.2,1.2,1.7c1.5,1.5,4.1,2.1,6.1,2.5c2.5,0.5,5,0.2,7.4-0.7c3.5-1.4,4.4-3.7,4.5-4.4C22,16,21.9,14.9,21.6,13.9z"/><g><g><ellipse transform="matrix(0.1106 -0.9939 0.9939 0.1106 1.7333 26.7477)" cx="15.8" cy="12.4" rx="2.9" ry="2.7"/><path d="M17,12.4c0,0.6-0.5,1-1.1,1c-0.6,0-1-0.5-1-1.1c0,0,0,0,0,0c0-0.6,0.5-1,1.1-1c0.6,0,1,0.4,1,1C17,12.3,17,12.4,17,12.4"/></g><g><ellipse transform="matrix(0.9972 -7.515277e-02 7.515277e-02 0.9972 -0.9098 0.6546)" cx="8.2" cy="12.4" rx="2.7" ry="2.9"/><path d="M9.4,12.2c0.1,0.6-0.3,1.1-0.9,1.2c-0.6,0-1-0.4-1.1-0.9c0-0.6,0.4-1,0.9-1.1C8.8,11.3,9.3,11.7,9.4,12.2"/></g></g><path d="M16.1,16.4c-0.4-0.3-0.9-0.1-1.3,0c-0.9,0.2-1.8,0.3-2.8,0.3c-0.9,0-1.9-0.1-2.8-0.3c-0.4-0.1-0.9-0.3-1.3,0c-0.4,0.3-0.1,1.5,0.7,2.3c1.9,1.9,4.9,1.9,6.8,0c0,0,0,0,0,0C16.2,18,16.6,16.8,16.1,16.4z"/></g>
<g id="amenity-shadetrees"><path d="M20.7,7.7c0-1.6-1.2-2.9-2.8-3.1c-0.6-1.6-2.4-2.4-4-1.8c-0.2,0.1-0.4,0.2-0.6,0.3c-0.9-1.5-2.8-2-4.2-1.1C8.4,2.4,7.9,3.2,7.7,4.1c-0.1,0-0.3,0-0.4,0c-1.7,0-3.1,1.3-3.1,3c0,0,0,0,0,0c0,0.1,0,0.2,0,0.3c-1.4,0.9-1.9,2.8-0.9,4.3c0.2,0.3,0.4,0.5,0.7,0.7c0,0.1,0,0.1,0,0.2c0,1.7,1.4,3.1,3.1,3.1c0.5,0,1-0.1,1.4-0.4c0.6,0.4,1.4,0.9,1.8,0.8c0,0,0.2,2.4,0.1,3c-0.1,1.1-0.3,2.3-0.7,3.4h3.7c-0.3-1-0.4-2-0.6-3c0-0.7,0.1-1.5,0.2-2.2l1.3-1.3c1.4,1,3.3,0.6,4.3-0.8c0.3-0.4,0.5-0.9,0.5-1.4c1.6-0.6,2.4-2.4,1.8-4c-0.1-0.4-0.3-0.7-0.6-1C20.6,8.4,20.7,8.1,20.7,7.7z M9.1,14.8c0.2-0.2,0.4-0.5,0.6-0.8l0.6,1.3C10.3,15.2,10,15.4,9.1,14.8z M11.4,15.6c-0.3,0.1-0.9-0.9-1.2-1.7c0.4,0.2,0.9,0.3,1.4,0.3c0.1,0,0.3,0,0.4,0C11.8,14.8,11.7,15.5,11.4,15.6z M12.7,16.2c-0.7,0.2-0.3-1.3-0.1-2.2c0.1-0.1,0.3-0.1,0.4-0.2c0.1,0.6,0.4,1.2,0.8,1.7C13.5,15.8,13.1,16,12.7,16.2L12.7,16.2z"/></g>
<g id="amenity-showers"> <path class="a" d="M22.08,22.5h-2.5c0-.44,0-.87,0-1.29,0-1.84-.08-3.67-.13-5.5l-.18-7.32a4.42,4.42,0,0,0-8.7-.91A6.33,6.33,0,0,0,8,7.44c0-.13,0-.25.05-.36a6.93,6.93,0,0,1,13.57.24,8.25,8.25,0,0,1,.11,1.21c.08,3,.15,5.92.23,8.88l.12,4.89Z" transform="translate(-2.03 -1.67)"/>    <path class="a" d="M14.46,11.65H3.86a5.59,5.59,0,0,1,10.6,0Z" transform="translate(-2.03 -1.67)"/>    <path class="a" d="M9.17,13.41H3.82a.62.62,0,0,1-.57-.32.6.6,0,0,1,0-.63.63.63,0,0,1,.58-.3H14.41a.64.64,0,0,1,.71.49.62.62,0,0,1-.63.76H9.17Z" transform="translate(-2.03 -1.67)"/>    <path class="a" d="M5.07,15.47a1.29,1.29,0,0,1,.41-.93c.62-.64.47-.63,1.08,0A1.23,1.23,0,0,1,7,15.68a1,1,0,0,1-1,.76A1,1,0,0,1,5.07,15.47Z" transform="translate(-2.03 -1.67)"/>    <path class="a" d="M9.15,20.11A2.61,2.61,0,0,1,10,21a1,1,0,0,1-.26,1.34,1,1,0,0,1-1.11,0,1,1,0,0,1-.33-1.11A2.4,2.4,0,0,1,9.15,20.11Z" transform="translate(-2.03 -1.67)"/>    <path class="a" d="M3,20.11a2.51,2.51,0,0,1,.85,1,1,1,0,0,1-.53,1.36.92.92,0,0,1-1-.21.94.94,0,0,1-.24-1A2.36,2.36,0,0,1,3,20.11Z" transform="translate(-2.03 -1.67)"/>    <path class="a" d="M6.07,20.11a2.59,2.59,0,0,1,.86,1,1,1,0,0,1-.35,1.27,1,1,0,0,1-1.09-.05,1,1,0,0,1-.32-1.09A2.39,2.39,0,0,1,6.07,20.11Z" transform="translate(-2.03 -1.67)"/>    <path class="a" d="M8.15,15.46a1.36,1.36,0,0,1,.4-.9A3.9,3.9,0,0,1,9,14.11a.18.18,0,0,1,.16,0A2.13,2.13,0,0,1,10,15.24a.9.9,0,0,1-.33,1,.88.88,0,0,1-1,.11A.91.91,0,0,1,8.15,15.46Z" transform="translate(-2.03 -1.67)"/>    <path class="a" d="M3.55,18.4a1.64,1.64,0,0,1,.51-.94.6.6,0,0,1,.08-.08c.44-.38.3-.39.73,0a1.52,1.52,0,0,1,.58,1.09.94.94,0,0,1-1,1A1,1,0,0,1,3.55,18.4Z" transform="translate(-2.03 -1.67)"/>    <path class="a" d="M8.54,18.48a.92.92,0,0,1-.56.9.9.9,0,0,1-1-.13.91.91,0,0,1-.31-1,2.16,2.16,0,0,1,.84-1.13.19.19,0,0,1,.15,0,2.18,2.18,0,0,1,.85,1.13C8.53,18.34,8.53,18.42,8.54,18.48Z" transform="translate(-2.03 -1.67)"/>    <path class="a" d="M14.71,18.46a1,1,0,0,1-.56.92.91.91,0,0,1-1-.12.94.94,0,0,1-.32-1,2.08,2.08,0,0,1,.86-1.16.15.15,0,0,1,.13,0,2.26,2.26,0,0,1,.81,1A2.51,2.51,0,0,1,14.71,18.46Z" transform="translate(-2.03 -1.67)"/>    <path class="a" d="M12.19,14a2.22,2.22,0,0,1,.92,1.21,1,1,0,0,1-.4,1,1,1,0,0,1-1.09,0,1,1,0,0,1-.35-1A2.23,2.23,0,0,1,12.19,14Z" transform="translate(-2.03 -1.67)"/>    <path class="a" d="M15.32,20.11a2.55,2.55,0,0,1,.86,1,1,1,0,0,1-.46,1.32.91.91,0,0,1-1-.15.94.94,0,0,1-.27-1.05A2.39,2.39,0,0,1,15.32,20.11Z" transform="translate(-2.03 -1.67)"/>    <path class="a" d="M11.62,18.51a.91.91,0,0,1-.54.87,1,1,0,0,1-1.33-1.1,2.09,2.09,0,0,1,.85-1.15.12.12,0,0,1,.13,0,2.21,2.21,0,0,1,.88,1.2A1.21,1.21,0,0,1,11.62,18.51Z" transform="translate(-2.03 -1.67)"/>    <path class="a" d="M12.24,20.11a2.45,2.45,0,0,1,.88,1.06,1,1,0,0,1-.49,1.25.9.9,0,0,1-1-.15.93.93,0,0,1-.27-1A2.31,2.31,0,0,1,12.24,20.11Z" transform="translate(-2.03 -1.67)"/></g>
<g id="amenity-shuffleboard"><path d="M6.9,3.3c7.3,0,7.3,11.2-0.1,11.1S-0.5,3.3,6.9,3.3z M6.9,11.2C8.1,11.1,9.1,10,9,8.7C8.9,7.6,8,6.7,6.9,6.6C3.9,6.7,3.8,11.1,6.9,11.2L6.9,11.2z"/>	<path d="M22.6,19.8L22,20.7c-1.9-1.4-3.8-2.9-5.6-4.2c-0.1-0.1-0.3-0.2-0.5-0.1c-1.1,0.3-2.3,0.4-3.4,0.3c-0.3,0-0.6,0.1-0.8,0.3c-0.5,0.4-1.2,0.3-1.6-0.1c-0.4-0.4-0.4-1.1,0-1.5c0.8-0.9,1.3,0.1,2.2,0.1c1.5-0.1,2.7-1.3,2.6-2.8c0-0.4-0.1-0.8-0.3-1.2c-0.5-0.5-0.9-1.2-0.4-1.8c0.4-0.4,1.2-0.4,1.6,0c0.3,0.3,0.4,0.8,0.3,1.2c-0.1,0.2-0.1,0.5-0.1,0.8c0.4,1.1,0.6,2.3,0.6,3.5c0,0.2,0.2,0.4,0.4,0.6C18.8,17,20.7,18.4,22.6,19.8z"/></g>
<g id="amenity-shuttleservice"><path d="M17 5H3c-1.1 0-2 .89-2 2v9h2c0 1.65 1.34 3 3 3s3-1.35 3-3h5.5c0 1.65 1.34 3 3 3s3-1.35 3-3H23v-5l-6-6zM3 11V7h4v4H3zm3 6.5c-.83 0-1.5-.67-1.5-1.5s.67-1.5 1.5-1.5 1.5.67 1.5 1.5-.67 1.5-1.5 1.5zm7-6.5H9V7h4v4zm4.5 6.5c-.83 0-1.5-.67-1.5-1.5s.67-1.5 1.5-1.5 1.5.67 1.5 1.5-.67 1.5-1.5 1.5zM15 11V7h1l4 4h-5z"></path></g>
<g id="amenity-spa"><path d="M8.55 12c-1.07-.71-2.25-1.27-3.53-1.61 1.28.34 2.46.9 3.53 1.61zm10.43-1.61c-1.29.34-2.49.91-3.57 1.64 1.08-.73 2.28-1.3 3.57-1.64z"></path><path d="M15.49 9.63c-.18-2.79-1.31-5.51-3.43-7.63-2.14 2.14-3.32 4.86-3.55 7.63 1.28.68 2.46 1.56 3.49 2.63 1.03-1.06 2.21-1.94 3.49-2.63zm-6.5 2.65c-.14-.1-.3-.19-.45-.29.15.11.31.19.45.29zm6.42-.25c-.13.09-.27.16-.4.26.13-.1.27-.17.4-.26zM12 15.45C9.85 12.17 6.18 10 2 10c0 5.32 3.36 9.82 8.03 11.49.63.23 1.29.4 1.97.51.68-.12 1.33-.29 1.97-.51C18.64 19.82 22 15.32 22 10c-4.18 0-7.85 2.17-10 5.45z"></path></g>
<g id="amenity-tennis"><path d="M2.2,7.8c0-2,1.1-3.9,2.9-4.9c1.7-1,3.8-0.9,5.3,0.3c2.4,1.6,4,4.2,4.1,7.1c0.2,1.9,1,3.8,2.3,5.2c0.3,0.3,0.8,0.5,1.1,0.8c1.2,1.1,2.3,2.3,3.4,3.4c0.5,0.5,0.5,0.8,0,1.3c-0.2,0.2-0.4,0.4-0.6,0.6c-0.2,0.3-0.6,0.3-0.9,0.1c0,0-0.1-0.1-0.1-0.1c-1.3-1.3-2.7-2.7-4-4c-0.5-1.2-1.6-1.6-2.7-2.2c-1.1-0.5-2.2-0.8-3.4-0.9c-3.1-0.3-5.7-2.2-7-5C2.5,8.9,2.3,8.3,2.2,7.8z M13.5,9.8c-0.3-2.5-1.7-4.6-3.8-5.9C8.8,3.4,7.8,3.2,6.8,3.4C4.5,3.8,3,6,3.4,8.2c0.1,0.7,0.4,1.3,0.8,1.9c1.3,1.9,3.4,3.1,5.7,3.4C12,13.8,13.5,12.4,13.5,9.8z M14,12.7c-0.4,0.4-0.8,0.8-1.2,1.1c-0.2,0.2,0,0.3,0.2,0.4c0.6,0.3,1.2,0.6,1.8,0.9c0.1,0.1,0.3,0.1,0.4,0.1L14,12.7z"/>	<path d="M5.2,19.3c1.6-0.1,2.8-1.3,2.9-2.9c1.3,0.1,2.3,1.1,2.4,2.4c-1.6,0.1-2.8,1.3-2.9,2.9C6.3,21.6,5.3,20.6,5.2,19.3z"/>	<path d="M10.5,19.3c-0.1,1.3-1.1,2.3-2.3,2.4c0-1.3,0.9-2.3,2.2-2.3C10.5,19.3,10.5,19.3,10.5,19.3z"/>	<path d="M5.2,18.7c0.1-1.2,1.1-2.3,2.3-2.4C7.8,17.2,6.6,18.8,5.2,18.7z"/>	<path d="M12.4,7.4l-0.8-0.7l-1,1.1l1.1,1l0.8-1.1c0.3,0.4,0.3,0.4,0,0.7c-0.2,0.2-0.4,0.4-0.6,0.6l1.1,1l0.3-0.1v0.8c-0.7-0.1-0.8,0.6-1.3,0.9l0.7,0.7c-0.2,0.2-0.2,0.2-0.9-0.4c-0.7,0.4-1,0.9-0.9,1.3H9.9c0.1-0.7-0.6-0.8-0.8-1.3c-0.5,0.1-0.6,0.9-1.2,0.8l-0.1-0.2l1-0.8l-1.1-1l-1,1l0.7,0.7c-0.5-0.2-0.9-0.5-1.2-0.8c-0.3-0.4-0.6-0.9-1.1-0.9c0,0,0,0-0.1-0.1l-1-1.5C3.8,9,3.8,8.8,3.9,8.7c0,0,0,0,0,0c0.3-0.3,0.6-0.5,0.9-0.9c-0.4-0.3-0.7-0.9-1.3-1c0-0.7,0.8-1,1.2-1.5L4.7,4.8l0.5,0.1C5.7,4.5,6,3.8,6.7,3.7C6.9,4.3,7.4,4.5,7.8,5C8.1,4.6,8.3,4.3,8.6,4c0.1-0.1,0.3-0.2,0.5-0.1C9.4,4.1,9.7,4.3,10,4.5l0.5,0.3c0.1,0,0.1,0.1,0.2,0.1c0.1,0.6,0.7,0.8,1.1,1.2c0.3,0.4,0.6,0.7,0.8,1.2L12.4,7.4z M6.1,6.4l-1-1l-1,1l1,1L6.1,6.4z M7.3,5.2L6.5,4.2l-1,1l1,1L7.3,5.2z M10.3,5.5l-0.9,1l0.9,1l1-1L10.3,5.5z M6.5,9.4l-1,0.9l1,1.1l1-1L6.5,9.4z M10,5.2l-1-1L8,5.1l0.9,1L10,5.2z M9,11.3l1-0.9l-1-1l-1.1,1L9,11.3z M12.5,10.4l-0.9-1l-1,0.9l1,1.1L12.5,10.4z M7.7,10l1-0.9L7.7,8l-1,1.1L7.7,10z M6.1,9l-1-0.9L4.1,9L5,10L6.1,9z M8,7.7l1,1l1-0.9l-1-1L8,7.7z M5.5,7.7l1,1.1l0.9-1l-1-1.1L5.5,7.7z M11.3,11.7l-1-1.1l-0.9,1l1,1.1L11.3,11.7z M7.7,7.4l1.1-1l-1-1l-1,1L7.7,7.4z M11.3,9.1l-0.9-1L9.3,9l1,1.1L11.3,9.1z"/></g>
<g id="amenity-tentsallowed"><path d="M12,4.9l8,12.6h2.7v1.5H1.3v-1.4H4L12,4.9z M12,10.1l-4.1,7.5h8.2L12,10.1z"/></g>
<g id="amenity-volleyball"><path d="M11.3,22.4l-0.9-0.1c-0.9-0.1-1.7-0.4-2.5-0.7c-0.1,0-0.2-0.1-0.3-0.2c4.4-1.2,8.1-4.4,9.9-8.6l0.6,0.3c1.2,0.7,2.4,1.5,3.4,2.4c0.1,0.1,0.1,0.2,0.1,0.3c-0.5,1.3-1.3,2.6-2.4,3.6c-1.3,1.3-2.9,2.2-4.6,2.6c-0.6,0.1-1.1,0.2-1.7,0.3h-0.2L11.3,22.4z"/>	<path d="M16.8,12.4c-0.5,1.2-1.2,2.4-2.1,3.4c-1.7,2.1-3.9,3.6-6.5,4.5c-0.5,0.2-1.1,0.3-1.6,0.4c-0.1,0-0.1,0-0.2,0c-0.7-0.5-1.4-1-2-1.6c-0.3-0.3-0.5-0.6-0.8-0.9c0.6-0.2,1.2-0.4,1.7-0.6c2.7-1.1,5.1-3.1,6.7-5.6c0.1-0.2,0.3-0.3,0.5-0.3C14,11.6,15.4,11.9,16.8,12.4C16.7,12.3,16.7,12.3,16.8,12.4z"/>	<path d="M22,14.6c-0.6-0.5-1.3-1-1.9-1.4c-1.7-1.2-3.6-1.9-5.6-2.3c-0.7-0.1-1.4-0.1-2.1-0.2c-0.1,0-0.2-0.1-0.3-0.2c-0.7-1.3-1.2-2.7-1.5-4.1c0,0,0-0.1,0-0.2c0.8,0,1.6-0.1,2.4,0c1.1,0,2.1,0.2,3.1,0.5c1.9,0.5,3.6,1.4,5.1,2.7c0.3,0.2,0.6,0.4,0.7,0.7c0.1,0.4,0.2,0.9,0.2,1.3c0,0.9,0,1.8-0.3,2.7c0,0.1,0,0.2,0,0.3C22.1,14.5,22.1,14.6,22,14.6z"/>	<path d="M9.8,1.8c0,0.4-0.1,0.8-0.1,1.2c-0.2,2.1,0.1,4.3,0.9,6.3c0.2,0.6,0.5,1.1,0.8,1.7c0.1,0.1,0.1,0.2,0,0.3c-0.7,1.1-1.5,2-2.4,2.9l-0.4,0.3l-0.1,0.1c-0.2-0.2-0.3-0.5-0.5-0.7c-1.1-1.6-1.8-3.5-2.2-5.4C5.6,7.1,5.6,5.8,5.7,4.5c0-0.2,0.1-0.4,0.1-0.7c0-0.2,0.1-0.3,0.3-0.4c1-0.7,2.2-1.2,3.3-1.5C9.5,1.9,9.7,1.9,9.8,1.8z"/>	<path d="M7.8,15.1c-1.2,0.8-2.5,1.5-3.8,1.9c-0.2,0.1-0.4,0.1-0.6,0.2s-0.3,0-0.4-0.2c-0.4-0.7-0.7-1.5-0.9-2.3c-0.4-1.3-0.5-2.7-0.3-4.1C2,8.6,2.9,6.6,4.2,5c0.2-0.2,0.4-0.4,0.5-0.6h0.1c-0.2,1.9,0,3.8,0.5,5.6C5.8,11.9,6.7,13.6,7.8,15.1z"/>	<path d="M10.6,5.5c-0.1-1.3-0.1-2.5,0.1-3.8c4.8-0.6,9.5,2.3,11,6.9c-1.6-1.3-3.3-2.2-5.3-2.7C14.6,5.4,12.5,5.2,10.6,5.5z"/></g>
<g id="amenity-water"><path d="M5.3,12.4C5,13,4.9,13.7,4.9,14.3c0.2,3.9,3.4,6.9,7.3,6.7c0,0,0.1,0,0.1,0h0.3c3.6-0.1,6.5-3.1,6.4-6.7c0,0,0,0,0,0c0-0.8-0.2-1.6-0.5-2.3c-1.8-3.3-4-6.3-6.6-9C9.3,5.8,7,9,5.3,12.4z"/></g>
<g id="amenity-wifi"><path d="M1 9l2 2c4.97-4.97 13.03-4.97 18 0l2-2C16.93 2.93 7.08 2.93 1 9zm8 8l3 3 3-3c-1.65-1.66-4.34-1.66-6 0zm-4-4l2 2c2.76-2.76 7.24-2.76 10 0l2-2C15.14 9.14 8.87 9.14 5 13z"></path></g>
</defs>
</svg>