<?xml version="1.0" encoding="UTF-8"?>
<svg data-bbox="5.705 8.59 36.574 30.81" xmlns="http://www.w3.org/2000/svg" viewBox="0 0 48 48" fill-rule="evenodd" clip-rule="evenodd" stroke-linejoin="round" stroke-miterlimit="2" data-type="ugc">
    <g>
        <path d="M23.992 13.876c3.85-6.381 11.55-6.381 15.4-3.19 3.85 3.19 3.85 9.57 0 15.952-2.695 4.786-9.624 9.571-15.4 12.762-5.774-3.19-12.704-7.976-15.4-12.762-3.849-6.381-3.849-12.762 0-15.953 3.851-3.19 11.55-3.19 15.4 3.191ZM22.43 24.391a3.274 3.274 0 0 1-1.548-2.798c0-1.797 1.418-3.256 3.165-3.256s3.164 1.459 3.164 3.256c0 1.21-.644 2.269-1.6 2.83l1.599 6.166h-6.325l1.545-6.198Z" fill="#a6192e"/>
    </g>
</svg>
