<?xml version="1.0" encoding="UTF-8" standalone="no"?>
<!DOCTYPE svg PUBLIC "-//W3C//DTD SVG 1.1//EN" "http://www.w3.org/Graphics/SVG/1.1/DTD/svg11.dtd">
<svg width="100%" height="100%" viewBox="0 0 5968 5968" version="1.1" xmlns="http://www.w3.org/2000/svg" xmlns:xlink="http://www.w3.org/1999/xlink" xml:space="preserve" xmlns:serif="http://www.serif.com/" style="fill-rule:evenodd;clip-rule:evenodd;stroke-linejoin:round;stroke-miterlimit:2;">
    <path d="M4029.91,1989.68C3842.41,1874.34 3698.2,1658.08 3662.26,1441.82C3654.92,1391.35 3647.73,1348.1 3647.73,1297.63L3078.21,1297.63L3078.21,3568.42C3078.21,3835.15 2861.97,4051.41 2595.26,4051.41C2508.86,4051.41 2436.67,4029.79 2364.64,3993.74C2213.24,3914.44 2105.11,3748.64 2105.11,3568.42C2105.11,3301.69 2321.36,3085.42 2595.26,3085.42C2645.72,3085.42 2689,3092.64 2739.47,3107.06L2739.47,2530.35C2689,2523.13 2645.72,2515.93 2595.26,2515.93C2011.37,2515.93 1535.6,2984.5 1535.6,3568.42C1535.6,3921.65 1715.75,4238.84 1989.8,4426.28C2162.77,4541.62 2371.82,4613.69 2595.26,4613.69C3179.15,4613.69 3647.73,4145.12 3647.73,3568.42L3647.73,2386.17C3863.97,2580.8 4152.4,2674.52 4440.68,2652.9L4440.68,2083.39C4296.62,2112.24 4152.4,2068.99 4029.91,1989.68Z" style="fill:none;"/>
</svg>
