<?xml version="1.0" encoding="UTF-8" standalone="no"?>
<!DOCTYPE svg PUBLIC "-//W3C//DTD SVG 1.1//EN" "http://www.w3.org/Graphics/SVG/1.1/DTD/svg11.dtd">
<svg width="100%" height="100%" viewBox="0 0 5968 5968" version="1.1" xmlns="http://www.w3.org/2000/svg" xmlns:xlink="http://www.w3.org/1999/xlink" xml:space="preserve" xmlns:serif="http://www.serif.com/" style="fill-rule:evenodd;clip-rule:evenodd;stroke-linejoin:round;stroke-miterlimit:2;">
    <path id="youtube" d="M1952.37,1798.87C2285.32,1772.23 2678.38,1758.91 2978.08,1758.91C3277.63,1758.91 3663.97,1772.23 4003.64,1798.87C4396.53,1832.17 4596.33,1898.76 4649.72,2291.7C4676.25,2471.52 4689.68,2717.94 4689.68,2971.02C4689.68,3224.1 4676.25,3477.18 4649.72,3650.33C4596.33,4049.93 4396.53,4109.87 4003.64,4143.16C3663.97,4176.47 3277.63,4183.12 2978.08,4183.12C2678.38,4183.12 2285.32,4176.47 1952.37,4143.16C1559.48,4109.87 1352.96,4049.93 1299.73,3650.33C1279.75,3477.18 1266.49,3224.1 1266.49,2971.02C1266.49,2717.94 1279.75,2471.52 1299.73,2291.7C1352.96,1898.76 1559.48,1832.17 1952.37,1798.87ZM2631.7,2458.21L3524.11,2971.02L2631.7,3490.49L2631.7,2458.21Z" style="fill:none;"/>
</svg>
